/* XPM */
static char *jump_r11719505488[] = {
/* columns rows colors chars-per-pixel */
"32 32 15 1 ",
"  c #1C121B",
". c #1C1A30",
"X c #5E2C29",
"o c #31443D",
"O c #237436",
"+ c #44513E",
"@ c #2A304E",
"# c #FC5003",
"$ c #16C23F",
"% c #70D732",
"& c #1B9644",
"* c #FDA216",
"= c #667291",
"- c #94A0BA",
"; c #FCFEFE",
/* pixels */
"oOOoOooOOOoooooOoOOoOooOOOoooooO",
"O&%O$OO&&&O+OOO&O&&O&OO&&&O+OOO&",
"&%$$%&&%%%&O&$%&&%%%$&&&&&&O$$$%",
"&$&$$&&%$$&&&&&&%%$$$$&&$$&&$&$$",
"&&&$&&&%$&&$&&&&&&&%$$&&&$&&$&&$",
"&&&&&&&&&&&$$&$$&&&&&&&&&&&&&&&&",
"&&%%%%&&&%$&&&&$&&$$$&$$&&$$$&&&",
"$$$$%&&$&%$$&&&&&$$$&&$&&%$$&&&&",
"&&$%&&$$&%%%@@@@@@$&&&&&%$$$$$&&",
"$$$&&$$&&&@@;;;;;-@@&&&%%%%$&&&$",
"%&&&&&&&@@;;;;;;;;--@&&&&&&&&&&$",
"$%&&$$@@;;;;;=======-@&&&&&&&$$&",
"$%&&$@;;;;;;=========@&$$&$$&&$&",
"$$%&@;;;;;;;===@@====@@$$&&$&&&&",
"$&$@;;;;;;;===@;;====;@$$&&&&&&&",
"$&$@;;;=;;;===...====.@&&&&&%%$&",
"&&&$@@;=;;;===...=  =.=@&&&&%$$&",
"&$&&$&@-;;;=======   ==@&$&&$$&&",
"$$&&&&@;;;;=======   ==@$$&&&&&&",
"&&&$$%@;;;;;======@@ ==@$$&$&&&&",
"&$$&$$%@;;;;==========@$&&$$&&$$",
"&&&$%&&@;;;;;====;--==@$&$$&&&%$",
"&&&&&&&&@;;;;;;;;;---@&&&$$&&&%%",
"$$&$$&$$@XX;;;;;;---@@&&&&&&$$&&",
"&$&$&&@@;;-XXXX;;--X-=@@&&&&&$&&",
"&&&&$@;;;;;;=;-XXXX--===@&&&&&$$",
"&$$&$@;;;;;=;;;;#**--===@$&&&$$$",
"&&$&&@;;;;=;;;;;#**-@===@&$&&$$&",
"&&&&&&@@@=;;;;;;#**-@@@@&&$$&&&&",
"%%%&&&&$$@;;;;;---==@$$%%&$$&$$$",
"$$%&&&&&@;;;;;@@====@$$&&&&&&$$&",
"&$%&&&&&@;;;;@&@===@$&$&&&$$&&&&"
};
