/* XPM */
static char *idle_l41719503977[] = {
/* columns rows colors chars-per-pixel */
"32 32 13 1 ",
"  c #04193F",
". c #31443D",
"X c #237436",
"o c #44513E",
"O c #03396B",
"+ c #C3242F",
"@ c #E7333B",
"# c #16C23F",
"$ c #70D732",
"% c #1B9644",
"& c #0696DB",
"* c #0FEFFB",
"= c #FCFEFE",
/* pixels */
".XX.X..XXX.....X.XX.X..XXX.....X",
"X%$X#XX%%%XoXXX%X%%X%XX%%%XoXXX%",
"%$##$%%$$$%X%#$%%$$$#%%%%%%X###$",
"%#%##%%$##%%%%%%$$####%%##%%#%##",
"%%%#%%%$#%%#%%%%%%%$##%%%#%%#%%#",
"%%%%%%%%%%%##%##%%%%%%%%%%%%%%%%",
"%%$$$$%%%$#%%%     ##%##%%###%%%",
"####$%%#%$##  &&***  %#%%$##%%%%",
"%%#$%%##%$$ OO&****** %%$#####%%",
"###%%##%%% OO  ******* $$$$#%%%#",
"$%%%%%%%% OOO  ******** %%%%%%%#",
"#$%%##%%%  OO&&**   *** %%%%%##%",
"#$%%#%%$ =  &&&* ==  *** %##%%#%",
"##$%%%$#    &&&*     *** %%#%%%%",
"#%#%%##$    &&&*     *** %%%%%%%",
"#%#%###%   O&&&&*   **** %%%$$#%",
"%%%##%#% OOO&&&&******** %%%$##%",
"%#%%#%#%% OOO&&&&****** %#%%##%%",
"##%%%%%%% OOO  &&&&**** ##%%%%%%",
"%%%##$$$%% OO&&&&&&&&& %##%#%%%%",
"%##%##$$$% OOO&&&&&&++ #%%##%%##",
"%%%#$%%%%# +OOOOO+++@O  %##%%%$#",
"%%%%%%%%%# @+++++@@@O&&&  #%%%$$",
"##%##%##  O @@@@@@@ &&&&&& %##%%",
"%#%#%%% OOO @@@@@  OO&&&&& %%#%%",
"%%%%##% OOOO @@  OO&&O&&&& %%%##",
"%##%#%% OOO O  OO&&&&&O   %%%###",
"%%#%%###    OOOO&&&&&& %%%#%%##%",
"%%%%%%###%% OOOOO&&&&& $%%##%%%%",
"$$$%%%%##%# OOOO  &&&& $$%##%###",
"##$%%%%%%%## OOO  &&&& %%%%%%##%",
"%#$%%%%%%%%% OOO % &&& %%%##%%%%"
};
