/* XPM */
static char *collectible[] = {
/* columns rows colors chars-per-pixel */
"32 32 147 2 ",
"   c #1B411B",
".  c #104A18",
"X  c #0D521B",
"o  c #30511C",
"O  c #3D761B",
"+  c #0E4B22",
"@  c #0F5326",
"#  c #105D2B",
"$  c #18553D",
"%  c #28552B",
"&  c #31443D",
"*  c #0C6A23",
"=  c #12642E",
"-  c #0E7827",
";  c #1C7624",
":  c #166E32",
">  c #1C6F3E",
",  c #187235",
"<  c #167836",
"1  c #177D39",
"2  c #237436",
"3  c #475219",
"4  c #565926",
"5  c #44513E",
"6  c #67582C",
"7  c #6D5A30",
"8  c #775F31",
"9  c #397749",
"0  c #34725E",
"q  c #597B45",
"w  c #666D4D",
"e  c #466F62",
"r  c #A67348",
"t  c #BB7C4D",
"y  c #108E2E",
"u  c #198A3F",
"i  c #14A836",
"p  c #14AF39",
"a  c #14B33A",
"s  c #15B93D",
"d  c #4F9923",
"f  c #16C23F",
"g  c #18C23F",
"h  c #67C52E",
"j  c #6ED332",
"k  c #70D732",
"l  c #73D539",
"z  c #1B9644",
"x  c #228B41",
"c  c #3D8243",
"v  c #279346",
"b  c #2A9446",
"n  c #22974B",
"m  c #3A934A",
"M  c #2DBA43",
"N  c #4D964D",
"B  c #48984E",
"V  c #5A9953",
"C  c #768B4E",
"Z  c #699C57",
"A  c #759A5A",
"S  c #41B052",
"D  c #56867D",
"F  c #17C240",
"G  c #19C240",
"H  c #5EC066",
"J  c #83CB3D",
"K  c #839D54",
"L  c #8A9058",
"P  c #949D5F",
"I  c #A79056",
"U  c #A39C50",
"Y  c #B6955F",
"T  c #88A15F",
"R  c #B1BE58",
"E  c #A6916C",
"W  c #B59D64",
"Q  c #B79A7C",
"!  c #9AA465",
"~  c #94AB79",
"^  c #A3A566",
"/  c #BDA86D",
"(  c #B6A371",
")  c #C68353",
"_  c #CB8655",
"`  c #CE8957",
"'  c #C68758",
"]  c #CA8758",
"[  c #C5885B",
"{  c #CD8B5B",
"}  c #D38D5B",
"|  c #D5915E",
" . c #D8915E",
".. c #E0945F",
"X. c #C48F64",
"o. c #CB8F61",
"O. c #C09066",
"+. c #CB9265",
"@. c #C2926A",
"#. c #CC966A",
"$. c #D39362",
"%. c #DA9562",
"&. c #DD9965",
"*. c #D49B6C",
"=. c #DC9C69",
"-. c #CD9F75",
";. c #D59E71",
":. c #E29A65",
">. c #E19D69",
",. c #DFA06E",
"<. c #CFAF74",
"1. c #C5A87F",
"2. c #C9AA7C",
"3. c #D3A275",
"4. c #D9A474",
"5. c #DBAC73",
"6. c #D7A87C",
"7. c #DBAA7D",
"8. c #E5A26D",
"9. c #E4A673",
"0. c #E9A671",
"q. c #E7A871",
"w. c #ECAB75",
"e. c #E5AD7C",
"r. c #EDAD79",
"t. c #F0AD77",
"y. c #F0AE78",
"u. c #E3B279",
"i. c #EDB27A",
"p. c #F3B37C",
"a. c #F9B37B",
"s. c #FEB87E",
"d. c #87D152",
"f. c #9ACA61",
"g. c #A49E85",
"h. c #88A094",
"j. c #D8B586",
"k. c #E3AE86",
"l. c #F5B680",
"z. c #F7B881",
"x. c #FDBB82",
"c. c #FCBF8A",
"v. c #CCC18A",
"b. c #E0C48C",
"n. c #FFC187",
"m. c #FFC48A",
"M. c #FFC892",
/* pixels */
"& 2 2 & 2 & & 2 2 2 & & & & & 2 & 2 2 & 2 & & 2 2 2 & & & & & 2 ",
"2 z k 2 f 2 2 z z z 2 5 2 2 2 z 2 z z 2 i 2 2 n z z 2 5 2 2 2 z ",
"z k f f k z z k k k z 2 z f k z z k k k f u z z z z z 2 f f f k ",
"z f z f f z z k f f z z z z z z k j f f f S z z g f z z f z f f ",
"z z z f z z z k f z z f z z z z z z z k f.z.m z z f z z f z z f ",
"z z z z z z z z z z z f F z F F z b A ( j.m.V z z z z z z z z z ",
"z z k k k k z z z k F z z z z M T u.n.s.k.x.K p z z f f f z z z ",
"f f f f k z z f n k g f z B ! i.m.a.w.q.8.e.Y < z k f f z z z z ",
"z z f k z z G f z k J R <.x.m.l.0.0.>.9.;.*.a.2 j s f f f f z z ",
"f f f z z g G b Z / z.m.c.y.w.>.>.&.=.;.;.:.x.U h k k g z z z f ",
"k z z z v V ^ e.m.m.s.i.0.0.>.&.} } { +.$.0.x.4., z z z z z z f ",
"f k B P 5.s.x.p.q.q.q.8.8.&.:.} ] { ] { >.0.p.n.q z z z z f f z ",
"F l 2.a.0.,.=.=.>.8.8.>.$._ _ _ _ _ _ } >.0.w.n.W u f f z z f z ",
"F g d.9.*.*.+.;.;.=.&.%.` _ ) ) ) _ ` } :.t.y.p.z.c z g z z z z ",
"g z g (  .$.o.+.+.#.#.+.o.+.[ [  .%. .&.q.t.w.e.m.L z z z z z z ",
"f z g m I 0.&._ ) ' X.@.@.@.X.' t.t.>.0.0.w.w.q.s.5.x z k k f z ",
"z z z G v.x.p.%.} } $.$.+.{ { } } } 8.r.w.w.8.>.q.m.A z k f f z ",
"z G z z H M.a.e. .} %.8.9. .t { _ $.$.&.q.8.%.&.8.p.5.v s F z z ",
"F F z z z ~ m.p.w.>.&.8.t.w.:.{ ) %.%.} %.w.%. .&.8.x.P z z z z ",
"z z z F F l b.z.p.p.t.8.t.y.w. .` } &.%.&.w.8.8.9.>.w.x.N z z z ",
"z F f z G F f.z.p.p.p.p.w.q.w.8.:.} }  .>.t.w.e.5.%.q.m.-.z f f ",
"z z z f k z n j.y.p.r.y.p.w.y.r.r.>.} &.t.w.e.6.;.&.p.s.m.V k f ",
"z z z z z z z ~ t.9.y.w.w.y.w.p.>.0.%.8.p.t.e.3.+.a.#.3.,.C k k ",
"f f z f f z s S w.>.0.8.r.y.w.t.8.>.w.w.p.w.7.;...| 4 % ; s z z ",
"z f z f z z z f E 8. .| k.9.8.8.q.0.w.r.s.s.*.r 6   @ = : a z z ",
"z z z z f f z z 9 Q O.t { &.%.&.>.w.a.y.' 7 o X + @ : < 1 u f f ",
"z f f z f z z z u > D h.g.1. . .:. .r 4 . . * # : i z z z f f f ",
"z z f z z f f f z s - $ 0 e w 8 7 3 + * = 1 u u z z f z z f f z ",
"z z z z z z f f f z z p y = @ O - d 1 u z k k k z z f f z z z z ",
"k k k z z z z f f z f f z z z z k s k z j f f k k z f f z f f f ",
"f f k z z z z z z z f f z z z z k f g z k f f z z z z z z f f z ",
"z f k z z z z z z z z z z z z z f z g z f z f z z z f f z z z z "
};
