/* XPM */
static char *exit_01[] = {
/* columns rows colors chars-per-pixel */
"32 32 177 2 ",
"   c #293D34",
".  c #333E3D",
"X  c #294438",
"o  c #31453D",
"O  c #30493C",
"+  c #3E533C",
"@  c #16652C",
"#  c #1E6F39",
"$  c #1E7438",
"%  c #216C35",
"&  c #237536",
"*  c #267736",
"=  c #247339",
"-  c #257B39",
";  c #4E473F",
":  c #4E4C3F",
">  c #50453D",
",  c #45503C",
"<  c #564542",
"1  c #554A43",
"2  c #5A4C46",
"3  c #5B4E48",
"4  c #545145",
"5  c #57524A",
"6  c #5C534A",
"7  c #57594D",
"8  c #5E5C4E",
"9  c #614D4A",
"0  c #61544E",
"q  c #62594E",
"w  c #635653",
"e  c #655B52",
"r  c #655D5B",
"t  c #6A5B5E",
"y  c #486547",
"u  c #566648",
"i  c #5F7344",
"p  c #536C51",
"a  c #5E605A",
"s  c #557050",
"d  c #64625E",
"f  c #69685F",
"g  c #70645C",
"h  c #6A5E62",
"j  c #6A6664",
"k  c #6C6464",
"l  c #6B6A64",
"z  c #6D6C69",
"x  c #736668",
"c  c #736B6B",
"v  c #697A6A",
"b  c #74746D",
"n  c #7D7574",
"m  c #787870",
"M  c #7D7D78",
"N  c #807476",
"B  c #84767A",
"V  c #837D7B",
"C  c #897A7D",
"Z  c #0D8C38",
"A  c #138D3D",
"S  c #198F3F",
"D  c #14943E",
"F  c #1B9B3F",
"G  c #25893A",
"H  c #2C9E3F",
"J  c #16B43A",
"K  c #1CBB3D",
"L  c #20BE34",
"P  c #1CC53D",
"I  c #22C83E",
"U  c #5FC734",
"Y  c #5ED333",
"T  c #62D736",
"R  c #179241",
"E  c #1C9545",
"W  c #159B43",
"Q  c #1B9A44",
"!  c #0D8E54",
"~  c #128F53",
"^  c #148E5A",
"/  c #139155",
"(  c #1A9057",
")  c #16925B",
"_  c #19935B",
"`  c #16985D",
"'  c #1C995E",
"]  c #239942",
"[  c #2B9E47",
"{  c #379B44",
"}  c #22935F",
"|  c #19A144",
" . c #15BD40",
".. c #26A142",
"X. c #2DA446",
"o. c #2EAB47",
"O. c #2CA349",
"+. c #35A547",
"@. c #33A44B",
"#. c #3CA64C",
"$. c #36AB4D",
"%. c #3BAB4D",
"&. c #3CB14D",
"*. c #3DAC51",
"=. c #3DB251",
"-. c #0F8A6E",
";. c #1D9463",
":. c #1C9A60",
">. c #209761",
",. c #219B60",
"<. c #279868",
"1. c #41AD4F",
"2. c #42A650",
"3. c #42AD52",
"4. c #49AC55",
"5. c #4EAE5A",
"6. c #45B254",
"7. c #49B353",
"8. c #49BA54",
"9. c #4FB95B",
"0. c #7E886F",
"q. c #68956F",
"w. c #768879",
"e. c #72907A",
"r. c #15C240",
"t. c #18C842",
"y. c #85817D",
"u. c #88C979",
"i. c #8CD67D",
"p. c #85D97B",
"a. c #8CDA7D",
"s. c #92D57F",
"d. c #92DA7F",
"f. c #8B7E83",
"g. c #868581",
"h. c #8A8483",
"j. c #888885",
"k. c #8B8986",
"l. c #8E8B8A",
"z. c #918387",
"x. c #93868A",
"c. c #938B8C",
"v. c #829C86",
"b. c #959291",
"n. c #9D9395",
"m. c #989B92",
"M. c #A39699",
"N. c #A59E9C",
"B. c #A99F9E",
"V. c #89AC8E",
"C. c #93AF80",
"Z. c #93A494",
"A. c #9AA297",
"S. c #9CA99C",
"D. c #89B091",
"F. c #95B095",
"G. c #AAA19F",
"H. c #AC9EA2",
"J. c #ADA3A2",
"K. c #ABAAA4",
"L. c #B2A3A4",
"P. c #B3A9A6",
"I. c #B6ABAA",
"U. c #BAACAF",
"Y. c #A8B5A8",
"T. c #B7B2AE",
"R. c #BCAFB0",
"E. c #BCB3B2",
"W. c #C4BBBC",
"Q. c #8CDA81",
"!. c #95D482",
"~. c #93DB81",
"^. c #99DD84",
"/. c #9CDC88",
"(. c #A1DE8C",
"). c #98E186",
"_. c #D5C4C8",
/* pixels */
"o $ = o = o o = $ $ X X   o X A._.A.@ X % O o * * & o . o . o $ ",
"# H U G J * = G F G v y.m.: : k.z.k.Z.7 y = @ E E E = + = & * ] ",
"Q Y I r.T ] R C.m 0.k.n.T.q 4 y.y.c.I.g n w.S.p A W E - K r.P T ",
"Q L Q t.J y w.n.H.6 d V c.L.0 C b.C 4 : y.n.I.3 u q.A Q r.| K P ",
"Q R Q J y 9 l g.k.6 2 k h.K.5 a z d 1 C n.J.6 3 n b.Z.R  .E Q J ",
"E E S e.P.6 < k x.J.1 ; b 4.%.#.1.2.c k.A.w N h.k.b.L.p D Q Q Q ",
"W Q i x.l.x.P.q M b.3.%.!.d.~.).d.).s.7.2.6 j c.R.H.6 f.V.R E E ",
" .J u d a x.K.+.1.!.).a.6.*.3.*.3.%.6.p.^.i.5.A.0 6 V g.n.v.R Q ",
"W y 1 1 0 t 8 7.p.6.%.*.~ ! ! ~ / ! ~ *.*.6.a.9.{ r z.k.V f D W ",
"K y 2 k.B.e u.^.3.( ! / *.6.*.3.*.3.*./ / ^ 3.a.~.m f.V 5 , D P ",
"T y x g.n.K.8.$.) ;.*.3.s.^.~.~.~.^.i.6.*.) ) $.7.s.c 2 1 k.D.J ",
"L i h l h.z.[ ` ^ *.~.~.6.$.3.*.3.$.6.~.^.*.) ( o.%.5 C g.m.F.D ",
"w.y.3 > > 4 } ..7.i.7.$.X.( ) ) ) ( O.$.6.i.7.[ ,.[ f z.g.B s Z ",
"c h.V 9 1 } / 7.i.6..._ :.) ) ) ) _ :._ [ 6.i.7.^ :.#.l 2 0 N.Y.",
"1 k x.W.T.' $.s.6./ } ;.( *.*.%.%.%.( ;.>.~ 6.i.3.) _ 5 B V n.E.",
"> 2 d x.K.4.i.9.[ ;.;./ =.~.^.~.^.~.=.) ;.:...7.^.$.^ z x.b.n 1 ",
"3 3 6 9 : 6.^.$._ ;./ 6.i.7.%.3.%.6.i.6.) ;._ $.~.6.( l C V e 2 ",
"k V c.M.q u.6.X.;.) 3.i.7..._ ) _ ..7.i.=.( ;.X.3.a.$.4 2 0 B.U.",
"4 h.c.c.W.(.+._ ) *.s.7...;.-.^ -.;...6.Q.*._ _ %.).1.j f.y.n.W.",
"1 x y.h.I.^.$.;._ 1.^.$._ -.' *.' -._ %.^.6.) ) 3.d.#.d x.h.M J.",
"2 r 6 w e !.&.) ) =.d.3.;.^ $.p.%.) ) 3.d.$._ ) %.).%.1 h k w 6 ",
"3 2 0 < 1 !.=.) ) 1.^.$.( -.;.*.' -.( $.^.3.) ) 3.i.4.w.9 3 J.R.",
"V h.U.J.g !.=._ ) *.d.6...;.-.) -.;...7.d.*.) ) %.^.4.y.f.h.c.I.",
"c h.c.c.P.~.&.@.;.( 3.i.8...( ) _ [ 7.i.3.( ;.X.6.a.3.r c V 6 0 ",
"h c V < 1 4.d.%._ ;./ 6.i.6.%.3.%.6.Q.6./ ;._ $.d.6.( 5 9 2 2 G.",
"5 r 6 3 ; $.^.7...;.;./ 3.~.^.~.^.~.3./ ;.} ..7.~.$.;.M z.H.w 2 ",
"2 1 2 L.T.} $.i.7.! ;.;.( *.&.*.%.*./ ;.:./ 6.i.*.` _ h.z.n.J.6 ",
"3 h.k.n.T.<.! 7.i.7..._ ;.) ) ) ) ) ;._ [ 6.i.6.^ :.#.l f.g.k.J.",
"1 C h.B y.@.' O.7.i.6.%.X.( ) _ ) _ X.%.6.i.7.O.} $.s.3 h V w 0 ",
"3 6 5 0 4 1.o._ ( %.~.~.6.%.&.3.4.$.6.d.^.*.^ _ ..8.!.e < 8 J.U.",
"y.B k.M.q u.8.@.;._ $.7.Q.~.~.~.i.^.i.6.$.) } $.7.p.3.d C y.c.E.",
"x c z.c.4 2.).^.$.;.^ _ %.%.%.%.%.1.%./ ( _ $././.%.~ 5 x l.V 3 "
};
