/* XPM */
static char *exit_04[] = {
/* columns rows colors chars-per-pixel */
"32 32 174 2 ",
"   c #333E3D",
".  c #294438",
"X  c #31453D",
"o  c #30493C",
"O  c #3E533C",
"+  c #16652C",
"@  c #1E6F39",
"#  c #1E7438",
"$  c #216C35",
"%  c #237536",
"&  c #267736",
"*  c #247339",
"=  c #4A453A",
"-  c #50453D",
";  c #45503C",
":  c #554843",
">  c #554A43",
",  c #5A4C46",
"<  c #5C4E48",
"1  c #545145",
"2  c #57534A",
"3  c #5C534A",
"4  c #57594D",
"5  c #5E5C4E",
"6  c #604C46",
"7  c #614E4A",
"8  c #62544E",
"9  c #62594E",
"0  c #645551",
"q  c #665B52",
"w  c #655E5B",
"e  c #6B5C5E",
"r  c #486547",
"t  c #566648",
"y  c #5F7344",
"u  c #5E6757",
"i  c #536C51",
"p  c #64625E",
"a  c #68615E",
"s  c #695E62",
"d  c #696464",
"f  c #6C6464",
"g  c #6A6A64",
"h  c #6C6B68",
"j  c #736668",
"k  c #736B6B",
"l  c #6C7569",
"z  c #74746D",
"x  c #7D7574",
"c  c #787870",
"v  c #7E7C79",
"b  c #807476",
"n  c #847679",
"m  c #837D7C",
"M  c #897A7D",
"N  c #0D8C38",
"B  c #138D3D",
"V  c #198F3F",
"C  c #14943E",
"Z  c #1B923C",
"A  c #1B9B3F",
"S  c #25893A",
"D  c #2B9C3F",
"F  c #16B43A",
"G  c #1CBB3D",
"H  c #1CC53D",
"J  c #22C83E",
"K  c #5FC734",
"L  c #5ED333",
"P  c #62D736",
"I  c #179241",
"U  c #1C9545",
"Y  c #159B43",
"T  c #1B9A44",
"R  c #118F55",
"E  c #188E56",
"W  c #148F5B",
"Q  c #0D9155",
"!  c #149256",
"~  c #1B9157",
"^  c #16925B",
"/  c #1A945C",
"(  c #1C995E",
")  c #269A43",
"_  c #379B44",
"`  c #21925E",
"'  c #19A144",
"]  c #15BD40",
"[  c #26A143",
"{  c #2CA446",
"}  c #2DAA46",
"|  c #2EA449",
" . c #32A247",
".. c #34A54B",
"X. c #3CA54C",
"o. c #36AA4D",
"O. c #3AAB4D",
"+. c #3AB04F",
"@. c #37A950",
"#. c #3DAC50",
"$. c #3BB151",
"%. c #068869",
"&. c #0C896F",
"*. c #1C8D60",
"=. c #169562",
"-. c #1C9463",
";. c #1A9962",
":. c #0E8970",
">. c #128B71",
",. c #219562",
"<. c #269867",
"1. c #41AD4E",
"2. c #45B24F",
"3. c #42A650",
"4. c #41AE52",
"5. c #4BAD58",
"6. c #44B152",
"7. c #49B354",
"8. c #49BA54",
"9. c #4FB95B",
"0. c #68956F",
"q. c #768879",
"w. c #72907A",
"e. c #15C240",
"r. c #18C842",
"t. c #85817D",
"y. c #88C778",
"u. c #8AD57C",
"i. c #85D97C",
"p. c #8BDB7D",
"a. c #92D97F",
"s. c #8B7E83",
"d. c #868482",
"f. c #8A8483",
"g. c #888884",
"h. c #8B8986",
"j. c #8D8A8A",
"k. c #918386",
"l. c #93868A",
"z. c #948B8C",
"x. c #829C86",
"c. c #998C91",
"v. c #969391",
"b. c #9D9395",
"n. c #989D93",
"m. c #A49A9A",
"M. c #AA9E9E",
"N. c #89AC8E",
"B. c #93AF80",
"V. c #93A494",
"C. c #9AA297",
"Z. c #9CA99C",
"A. c #89B091",
"S. c #95B095",
"D. c #AAA29F",
"F. c #AC9EA1",
"G. c #ADA3A2",
"H. c #A7A8A2",
"J. c #ABAAA4",
"K. c #B2A3A4",
"L. c #B4A6A7",
"P. c #B4ABAA",
"I. c #BAACAF",
"U. c #A8B5A8",
"Y. c #B4B1AD",
"T. c #BCB2B2",
"R. c #C4BBBC",
"E. c #8FDB81",
"W. c #93D481",
"Q. c #93DA82",
"!. c #99DD84",
"~. c #97E185",
"^. c #9AE288",
"/. c #D5C4C8",
/* pixels */
"X # * X $ X X * S @ . . . . . C./.C.+ . + o o % % % X X X   X # ",
"@ D K S G & * Z Z Z l m n.- ; h.k.z.V.4 r @ @ Z U U * O * % % ) ",
") L J H P U V B.z t.j.b.Y.9 - t.t.z.P.q x d.Z.i B Y U & G H H P ",
"T G Y r.F r q.b.F.3 d m z.K.9 M c.k.- 3 m m.P., t 0.B T e.' F J ",
"T I Y F r , g t.g.3 , f f.H.2 u l p > M b.D.3 , x c.V.I ] U U ] ",
"U U Z w.K.8 - j l.F.> - z 5.O.X.O.3.k g.C.0 b h.h.v.K.i C Y I T ",
"Y T y k.j.k.P.9 v v.3.1.W.Q.Q.~.a.~.a.6.3.3 g c.I.G.3 f.N.I U U ",
"] F t a p c.J. .O.a.^.E.6.O.4.#.2.O.2.i.!.u.5.C.0 3 m d.b.x.I T ",
"Y r > > 9 e 5 6.i.6.O.#.^ ^ ^ ^ / ^ ^ 4.#.6.p.9._ w k.g.m p A T ",
"G r , g.F.0 y.!.6.E ^ / ,./ ^ / ^ ^ ,.^ ^ E #.p.Q.c s.m , ; C H ",
"L t j d.b.J.8.o.^ -.-./ { #.#.O.#.#.{ / -.-.^ #.7.u.k , > j.A.F ",
"G y d g s.g. .! >.^ { O.6.a.!.Q.!.a.6.O.{ ^ :.E } O.3 M d.n.S.C ",
"q.t.< - - 1 ( ;./ O.6.Q.Q.4.O.4.O.$.Q.Q.6.O./ -.;.) g k.d.b i N ",
"z t.m 6 , ` :./ O.Q.Q.4.O./ ^ ^ ^ / O.6.Q.Q.O./ >.( X.g , 5 m.U.",
"- j j.R.Y.<.Q O.Q.7.O./ ^ ^ ^ ^ ^ / ^ ^ ..8.Q.O.^ ;.~ 2 n m b.T.",
"- , a k.P.<.D 2.Q...R -./ #.4.#.4.#./ -.! ..Q.2. .;.*.h l.v.c > ",
"< , < < , E O.a.2./ ,.{ 1.Q.!.a.!.Q.4.^ -./ 6.Q.#.! ` d M m 0 , ",
"f M g.M.4 ) 8.Q...^ | 2.u.8...4.O.6.u.#./ ^ @.Q.6.{ -.2 , 5 D.I.",
"3 d.j.b.J.7.p.6./ / O.Q.7.[ ^ W ! [ 7.Q.#./ / #.Q.O.E h M m b.R.",
", j s.l.H.7.a.O.^ / #.!.O.^ >.&.>./ ..!.$.^ ^ #.!.#.E h l.g.v G.",
", w < e 1 X.a.1./ ^ #.p.6.^ &.&.&.^ 4.a.#.^ / 4.a.$.E 2 e d 0 3 ",
"< < 3 < = 1.~.O.=.^ 4.!.o./ >.&.>.^ O.Q.4.^ ^ O.!.@./ s.6 < G.T.",
"m s.P.L.0 O.E.#./ ^ O.Q.6.) ^ ^ ^ ! 6.Q.#.^ / #.a.O.~ j.k.d.z.P.",
"k h.z.c.H...#.!.#.^ / #.u.8...6.O.6.E.#./ ^ O.Q.6.{ ,.p j m 3 0 ",
"d k v : < ~ o.Q.6./ -.^ 6.a.!.p.~.a.2.{ -./ 6.Q.O.^ -., < , , m.",
", w < 6 > -.} 6.Q.O.! -.| O.#.#.O.#.| ,.! ..E.2. .( ,.m l.D.q , ",
", : , L.P.<.R #.Q.7.../ / / / ^ / / ^ ^ ..9.Q.O.^ =./ g.k.v.G.0 ",
"< d.h.b.Y.<.%./ O.Q.Q.6.../ ^ / ^ / ..6.Q.Q.O./ &.( X.g s.d.h.G.",
", m f.n t. .( -./ O.2.Q.Q.6.O.4.O.6.Q.Q.2.O./ -.^ O.a.3 s m 8 8 ",
"< < 3 8 3 1.} E &.! { O.6.a.!.a.!.a.6.O.{ ^ &./ ) 7.W.9 > 8 G.I.",
"s.x h.m.0 y.8...( -./ / { 1.#.#.#.#.{ ! ,.-.;.X.7.i.#.d M t.z.T.",
"h k j.z.> X.^.!.O./ -.-./ ^ ^ ^ ^ / / -./ ^ O.!.!.$.E 3 j z.m , "
};
