/* XPM */
static char *exit_03[] = {
/* columns rows colors chars-per-pixel */
"32 32 183 2 ",
"   c #293D34",
".  c #333E3D",
"X  c #294438",
"o  c #31453D",
"O  c #30493C",
"+  c #3E533C",
"@  c #16652C",
"#  c #1E6F39",
"$  c #1E7438",
"%  c #216C35",
"&  c #237536",
"*  c #267736",
"=  c #247339",
"-  c #257B39",
";  c #4B463A",
":  c #52473E",
">  c #46503C",
",  c #4C4D41",
"<  c #554442",
"1  c #584645",
"2  c #554B43",
"3  c #5A4C46",
"4  c #5C4D49",
"5  c #555044",
"6  c #5A5346",
"7  c #575149",
"8  c #5C534A",
"9  c #57594C",
"0  c #5F5A4C",
"q  c #5F5955",
"w  c #604E4A",
"e  c #62554E",
"r  c #615A4D",
"t  c #625651",
"y  c #645B53",
"u  c #6A5A52",
"i  c #665D5B",
"p  c #695B5C",
"a  c #486547",
"s  c #55634C",
"d  c #5F7344",
"f  c #536C51",
"g  c #5F6E55",
"h  c #66635E",
"j  c #68645E",
"k  c #787E5E",
"l  c #6C5E62",
"z  c #646660",
"x  c #6C6464",
"c  c #656B62",
"v  c #6A6A63",
"b  c #6D6C69",
"n  c #716765",
"m  c #72666A",
"M  c #736C6C",
"N  c #6A766A",
"B  c #74726C",
"V  c #7E7474",
"C  c #807877",
"Z  c #84767A",
"A  c #847D7C",
"S  c #8A7B7E",
"D  c #0D8C38",
"F  c #169A33",
"G  c #14943E",
"H  c #1B923C",
"J  c #1B9B3F",
"K  c #25893A",
"L  c #2C9E3F",
"P  c #16B43A",
"I  c #1CBB3D",
"U  c #20BE34",
"Y  c #1CC53D",
"T  c #22C83E",
"R  c #5FC734",
"E  c #5ED333",
"W  c #62D736",
"Q  c #179241",
"!  c #1C9545",
"~  c #159B43",
"^  c #1B9A44",
"/  c #0B8E56",
"(  c #158955",
")  c #148E5D",
"_  c #1C8E5B",
"`  c #0E9255",
"'  c #129356",
"]  c #149957",
"[  c #15925B",
"{  c #19935B",
"}  c #1D9B5F",
"|  c #259741",
" . c #249D42",
".. c #329843",
"X. c #25945E",
"o. c #23995F",
"O. c #19A144",
"+. c #15BD40",
"@. c #19BE41",
"#. c #27A141",
"$. c #2BA245",
"%. c #2BA847",
"&. c #32A346",
"*. c #39A544",
"=. c #34A44A",
"-. c #3AA44C",
";. c #35AA4B",
":. c #3AAB4E",
">. c #3DA652",
",. c #37AA50",
"<. c #3CAC51",
"1. c #3DB253",
"2. c #0E8A6D",
"3. c #118A6E",
"4. c #1C9463",
"5. c #1C9961",
"6. c #118B70",
"7. c #109270",
"8. c #238F63",
"9. c #259966",
"0. c #259669",
"q. c #41AE4F",
"w. c #42B14F",
"e. c #42A751",
"r. c #42AE52",
"t. c #4AAE56",
"y. c #45B252",
"u. c #4AB454",
"i. c #49B852",
"p. c #4CB458",
"a. c #7E886F",
"s. c #68956F",
"d. c #7A8179",
"f. c #748E7A",
"g. c #72907A",
"h. c #15C240",
"j. c #18C842",
"k. c #85817D",
"l. c #87D67B",
"z. c #8DD67D",
"x. c #8ED87E",
"c. c #92DA7F",
"v. c #8A7D82",
"b. c #858481",
"n. c #8A8383",
"m. c #808D81",
"M. c #8B8A86",
"N. c #8E8B8A",
"B. c #92858A",
"V. c #938B8B",
"C. c #869689",
"Z. c #978D92",
"A. c #9B8E92",
"S. c #969291",
"D. c #9C9395",
"F. c #9B9B95",
"G. c #A39899",
"H. c #AA9D9D",
"J. c #89AC8E",
"K. c #93AF80",
"L. c #89AF91",
"P. c #93A494",
"I. c #9AA69A",
"U. c #95B095",
"Y. c #A9A59E",
"T. c #AC9FA2",
"R. c #ADA3A2",
"E. c #ADAAA7",
"W. c #B2A3A4",
"Q. c #B5ABAA",
"!. c #B6ABAB",
"~. c #A8B5A8",
"^. c #B4B0A9",
"/. c #B9AFB0",
"(. c #BDB3B2",
"). c #C1B9B7",
"_. c #96CF83",
"`. c #8FD781",
"'. c #96D583",
"]. c #93DA82",
"[. c #9ADD85",
"{. c #9BDD89",
"}. c #D5C4C8",
/* pixels */
"o $ = o = o o = & = X   X o X F.}.P.@ X # O o = - & o . o . o # ",
"# L R K P * = K H H N b.F., , n.M.M.I.9 a % @ H | Q = + = & * | ",
"^ E T h.W ^ Q K.k a.B.S./.r 5 n.k.V.Q.y V m.I.f D ~ ! - P Y Y W ",
"^ U ^ j.I a d.D.H.q h A N.R.e Z V.v.2 5 k.F.Q.3 s s.Q ^ h.O.@.Y ",
"! Q ~ P a 4 n b.n.8 1 l B.^.r x B z 4 Z A.R.q 3 V V.P.! @.! ! +.",
"! ! H g.W.6 2 n B.W.r 2 b >.;...;.-.c V.Y.u V n.M.S.R.f G ~ ! ^ ",
"~ J d B.M.N.R.r A C.-.=.{ ` ] ] ] ] _ ,.>., n V.Q.R.8 n.J.G ! ! ",
"@.P s j h Z.Q.-.&.X.[ ] ,.r.<.r.>.e.,.] ' { e.Y.y 8 k.b.D.C.Q ^ ",
"~ a 2 2 e p 9 8.] %.:.e.c.[.c.c.c.[.].r.,.%.] 9...j B.M.A g G ! ",
"I a 4 b.T.t ( [ -.y.].].y.:.r.:.q.:.r.c.].u.,.` 5.b n.k.8 > G h.",
"W a x b.G.E.5.;.[.].y.:.{ [ [ [ { [ { :.y.].].r.[ 8.v 4 2 B.L.P ",
"U d x v v.b.t.l.u.;.{ [ 3.[ { { [ [ 3.) { ;.u.z.y.` 4 S b.F.U.G ",
"f.A e : < r z.u. .[ 6.) [ <.:.:.q.<.{ [ 6.] $.u.l.q.c B.b.Z f D ",
"M n.k.1 6 _.i.#.o.4.{ :.y.z.[.c.[.z.y.;.{ 8.8.#.u.].>.h 4 0 H.~.",
"2 x V.Q.).{.&.[ 4.$.w.].].r.:.r.<.r.].'.q.$.4.[ -.].q.2 Z k.S.(.",
": 3 h B.^.q.{ 3.{ q.z.u.:.{ [ { [ [ ;.u.l.w.{ 7.{ 1.'.B n.S.V 2 ",
"4 3 4 w 5 ..5.) :.'.u.#.{ 3.[ { [ 6.[ #.u.].:.[ ) ;.].M C k.t 3 ",
"x v.M.H.8 _ 7.[ y.].;.{ 4.{ :.w.,.{ 4.{ ;.c.y.[ 3.5.-.6 3 e H./.",
"7 n.M.A.^.0./ e.x.y.{ 3.{ <.z.[.x.r.{ 6.{ r.c.<.) 5.&.v S n.D.).",
"2 m b.B.E.9.` r.[.:.) [ <.x.p.;.p.z.<.[ [ :.[.w.[ } =.x B.M.C R.",
"3 i 4 p 0 4.) :.c.y.[ [ w.[.;.F ;.[.y.[ { r.c.:.) 5.*.8 l z t w ",
"7 4 8 4 ; _ [ q.[.:.[ [ ,.z.p.;.p.x.<.[ [ :.[.q._ } :.k.4 4 R.(.",
"A n.Q.W.g _ [ <.z.r.{ 3.{ r.z.[.z.:.{ 6.{ r.z.:.) [ ;.b.n.b.V.Q.",
"M n.V.A.R.8.2.{ y.].;.{ 4.{ <.q.<.{ 4.{ ;.].y.{ 3.} -.x m A 4 t ",
"z M A : 6 =.5.) :.].u.#.[ 6.[ { [ 6.{ #.u.].:.) [ ;.'.e 2 3 3 H.",
"4 i 4 3 2 *.5.2.{ q.z.y.:.[ [ [ [ [ ;.u.z.w.{ 6.{ w.{.b.n.R.y 3 ",
"3 2 4 T.).'.=.[ 4.$.r.].].r.:.y.:.y.].'.<.$.4.[ :.].y.b.B.S.R.e ",
"7 n.N.Z.).{.w.$.o.4.{ ,.y.z.[.c.[.].y.:.{ 4.o.#.u.].-.z B.b.n.R.",
"2 S n.Z V t.l.u.#.[ 2.[ { <.q.:.:.,.[ [ 6.[  .u.z.1.{ 2 x A e e ",
"8 4 7 e 9 ' y.z.u.;.{ ) 2.) ) ' [ [ 3.[ { ;.u.x.y.` _ 8 1 e R./.",
"S C M.H.7 _ [ <.].].q.;.o.{ } } 5.{ } ;.q.].].<.) 5.;.x S k.V./.",
"x M B.B.8 =.5.[ :.w.[.[.;.&.;.;.-.&.-.{.[.q.;.{ 4.;.*.5 m V.A 4 "
};
