/* XPM */
static char *exit_02[] = {
/* columns rows colors chars-per-pixel */
"32 32 178 2 ",
"   c #293D34",
".  c #333E3D",
"X  c #294438",
"o  c #31453D",
"O  c #30493C",
"+  c #3E533C",
"@  c #16652C",
"#  c #1E6F39",
"$  c #1E7438",
"%  c #237536",
"&  c #267736",
"*  c #247339",
"=  c #257B39",
"-  c #4C453E",
";  c #4C4D3E",
":  c #50483E",
">  c #46503C",
",  c #4D4C41",
"<  c #554744",
"1  c #594643",
"2  c #564B43",
"3  c #5A4C46",
"4  c #5C4E49",
"5  c #555145",
"6  c #595346",
"7  c #57564C",
"8  c #5B534A",
"9  c #5D5851",
"0  c #614D4A",
"q  c #62554E",
"w  c #61594E",
"e  c #635551",
"r  c #645A52",
"t  c #6A5A54",
"y  c #655D5A",
"u  c #6A5C5D",
"i  c #486547",
"p  c #566648",
"a  c #5F7344",
"s  c #536C51",
"d  c #5F6B5A",
"f  c #65615F",
"g  c #68625E",
"h  c #787E5E",
"j  c #6A5F62",
"k  c #656260",
"l  c #6B6464",
"z  c #6B6A65",
"x  c #6B6866",
"c  c #716365",
"v  c #736B6B",
"b  c #6C776A",
"n  c #79766F",
"m  c #7D7474",
"M  c #817576",
"N  c #847C7C",
"B  c #897B7C",
"V  c #0D8C38",
"C  c #138D3D",
"Z  c #14943E",
"A  c #1B923C",
"S  c #25893A",
"D  c #25943A",
"F  c #2C9E3F",
"G  c #16B43A",
"H  c #1CBB3D",
"J  c #20BE34",
"K  c #1CC53D",
"L  c #22C83E",
"P  c #5FC734",
"I  c #5ED333",
"U  c #62D736",
"Y  c #179241",
"T  c #1C9545",
"R  c #159B43",
"E  c #1B9A44",
"W  c #0F8E57",
"Q  c #158E56",
"!  c #128E5C",
"~  c #1C8C5A",
"^  c #0F9156",
"/  c #139155",
"(  c #199457",
")  c #15925B",
"_  c #1A945B",
"`  c #1C9A5C",
"'  c #239942",
"]  c #2D9D42",
"[  c #349F46",
"{  c #218C5A",
"}  c #22925D",
"|  c #21985D",
" . c #19A144",
".. c #15BD40",
"X. c #19BE41",
"o. c #26A344",
"O. c #2BA344",
"+. c #2DAA47",
"@. c #35A549",
"#. c #3AA74D",
"$. c #35A94C",
"%. c #3AAC4D",
"&. c #3BAC51",
"*. c #3CB252",
"=. c #008167",
"-. c #06866A",
";. c #0C866B",
":. c #0B8968",
">. c #1E8F61",
",. c #128D6E",
"<. c #1D9462",
"1. c #1B9962",
"2. c #178E77",
"3. c #229564",
"4. c #229861",
"5. c #2B9C67",
"6. c #2B9C69",
"7. c #33A069",
"8. c #42AF4F",
"9. c #43B04F",
"0. c #4BB64F",
"q. c #41A751",
"w. c #42AE51",
"e. c #49AD52",
"r. c #44B253",
"t. c #49B255",
"y. c #4BB959",
"u. c #7E886F",
"i. c #68956F",
"p. c #768879",
"a. c #72907A",
"s. c #15C240",
"d. c #18C842",
"f. c #84817C",
"g. c #86D778",
"h. c #8CD57D",
"j. c #8EDA7E",
"k. c #91D57E",
"l. c #91D97F",
"z. c #867D81",
"x. c #858481",
"c. c #8B8483",
"v. c #838E83",
"b. c #8A8987",
"n. c #8E8B8A",
"m. c #948687",
"M. c #93868A",
"N. c #948B8C",
"B. c #829C86",
"V. c #9C8E91",
"C. c #959290",
"Z. c #9C9294",
"A. c #9B9B95",
"S. c #A59E9C",
"D. c #AA9D9D",
"F. c #89AC8E",
"G. c #93AF80",
"H. c #89AF91",
"J. c #93A494",
"K. c #9BA69A",
"L. c #95B095",
"P. c #A8A29D",
"I. c #ADA3A2",
"U. c #A7A8A4",
"Y. c #B3A3A4",
"T. c #B4A3A8",
"R. c #B4ACAB",
"E. c #B9ABAC",
"W. c #A8B5A8",
"Q. c #B6B3AC",
"!. c #BBAEB1",
"~. c #BCB2B2",
"^. c #C4BBBC",
"/. c #8ED680",
"(. c #92D581",
"). c #93DA82",
"_. c #9ADD84",
"`. c #D5C4C8",
/* pixels */
"o $ * o * o o * $ $ X   X X X A.`.K.@ X @ o o & = * o o o . o $ ",
"# F P S G & * D A S b b.A., ; b.b.b.J.7 i $ @ T T T * + * % % ' ",
"E I L s.U ' Y G.h u.b.Z.~.w 5 c.f.C.E.t m v.K.s C R T & H s.L U ",
"E J E d.G i p.V.D.9 k N n.I.q M N.f.: 5 z.A.R.3 p i.C E s.R H K ",
"E Y R G i 4 c x.b.6 1 c M.R.9 f n l 4 B V.S.8 3 M C.J.T ..T T G ",
"T T C a.T.8 2 c M.T.7 < z } / ~ Q ~ d N.I.u m x.b.N.Y.s Z E E E ",
"R E a m.n.m.I.9 N v.~ / #.&.&.&.&.*.q.` ~ , v N.E.D.7 c.F.Y T E ",
"X.G p g f N.R.3.Q 9.*.*.)._.).).)._.j.&.%.#.} U.r 8 N x.Z.B.Y T ",
"R i 2 2 9 u 7 Q *.h._.k.w.%.w.&.w.%.w.)._.j.*.` { l M.b.N u Z  .",
"H i 3 x.Y.r D t.h.t.%.%.( ) ) _ ) ) ( &.%.t.k.*.O.b c.N 4 > Z K ",
"I p x x.Z.I.y.g.t.O.( _ <.) ) ) ) _ <.) ( o.r.(.t.@.z 4 ; b.H.G ",
"H a l x z.N.(.*.Q <.<.) ) &.w.&.w.&.) ) 3.<.) w.j.#.; B f.A.L.Z ",
"p.f.q : 1 5 #.( <.<.( $.r.)._.)._.k.r.$.( 1.<.Q r.h.n c.c.B s V ",
"v c.f.0 : @.( <.| o.9.l.).w.&.w.&.&.).).%.O.| <.Q t.(.v < w P.W.",
": c n.!.Q.%.) <.O.t.h.t.$._ ) _ ! ` %.t.h.r.O.<.<.+.#.6 M N C.~.",
": 3 g m.R.5.) ` &.l.t.W ) <.) ) _ <.! W r.h.w.( <.` @.x M.C.m 2 ",
"4 3 6 0 2 <.) %.).w.W ,.<.( &.8.&.( <.,.W t.).&.! 1.#.x B N e 3 ",
"x N n.D.7 ~ ) w._.| -.<.+.t.h._./.w.O.<.-.4.).r.) 1._ 6 1 e P.R.",
"4 z.n.V.R.4.$.(.&._ <.) 8.h.t.$.t.h.t.( <.) &.j.&.) >.x B N Z.^.",
"< v f.M.R.<.%._.3.-._ &.k.r./ ! / r.h.&._ -.3._.8.) _ x M.b.N I.",
"3 y 5 u 9 Q &.(.6.-.) r._.$.! 2.) $._.9.) -.6./.&.) >.8 j l q q ",
"4 4 8 4 - Q *._.3.-._ $.j.r./ ) / t./.%._ -.<._.9.^ 3.f.0 3 I.!.",
"N c.R.T.r Q *.(.6.:.<.( r.h.t.@.t.h.r.( <.:.6./.&.) 3.b.m.f.N.R.",
"v c.N.V.U.6.^ r.).<.-.<.O.r.j._./.w.O.<.-.<.).t.) ` } k c N 8 q ",
"f v N 1 2 <.! %.).7.=.,.1.( &.r.&.( <.,.=.6.).%.! <.$.5 4 3 < P.",
"4 y 4 0 2 ` <._ 9.h.6.=.-.<.) ) _ <.-.=.6./.r.) <.` @.f.m.D.r 3 ",
"3 3 3 T.Q.@.) <.o.t./.7.3.:.-.-.-.:.<.7./.0.] <.<.O.9.b.c.Z.I.q ",
"6 z.b.Z.Q.t./ <.| O.&.(.).6.3.5.3.6.).).*.o.` <.Q r.h.v z.b.c.I.",
"1 N c.m b.(.*.Q <._ ` %.t./._./._.).t.$.( <.<.) w.j.e.; c N q q ",
"8 4 8 q 2 w./.t./ <.<.! / &.w.%.&.&.) ) <._ / w.h.r.] 7 1 q I.E.",
"B N c.D.8 D y.g.t.O.| <.<.) ) ) ) Q _ <.| @.r.h.t.o.} l B x.N.!.",
"x v N.M.7 } o.w.l.%.+.$._ <.<.<.<.<.` $.+.%.l.t.O.1.;.8 c n.N 4 "
};
