/* XPM */
static char *exit_off[] = {
/* columns rows colors chars-per-pixel */
"32 32 162 2 ",
"   c #2B3C37",
".  c #333E3D",
"X  c #264134",
"o  c #2B463A",
"O  c #31443D",
"+  c #304A3C",
"@  c #3E533C",
"#  c #16662C",
"$  c #1E6F39",
"%  c #1E7236",
"&  c #1E7839",
"*  c #237436",
"=  c #267736",
"-  c #247238",
";  c #247B3A",
":  c #4D463C",
">  c #43573F",
",  c #554C45",
"<  c #594C47",
"1  c #574D48",
"2  c #5B4E49",
"3  c #4F5043",
"4  c #535345",
"5  c #565349",
"6  c #5C524C",
"7  c #5A594D",
"8  c #5F5854",
"9  c #61534E",
"0  c #61584E",
"q  c #625651",
"w  c #645A54",
"e  c #645E5C",
"r  c #6B5B5C",
"t  c #416A47",
"y  c #4F6844",
"u  c #4A6749",
"i  c #55654D",
"p  c #497C4D",
"a  c #5E7049",
"s  c #5D665B",
"d  c #4A7A53",
"f  c #527353",
"g  c #64625E",
"h  c #68625E",
"j  c #686C5F",
"k  c #687D5D",
"l  c #656561",
"z  c #6C6463",
"x  c #666862",
"c  c #6E6968",
"v  c #706667",
"b  c #716967",
"n  c #726668",
"m  c #736C6C",
"M  c #677968",
"N  c #7C7776",
"B  c #7D7976",
"V  c #807575",
"C  c #807877",
"Z  c #837C7B",
"A  c #897E7F",
"S  c #0C8E38",
"D  c #158B3E",
"F  c #198D3D",
"G  c #13953D",
"H  c #1C933B",
"J  c #1C9B3E",
"K  c #298336",
"L  c #238F3E",
"P  c #27993F",
"I  c #15AF3E",
"U  c #10B036",
"Y  c #19BF37",
"T  c #16B43D",
"R  c #1AB43E",
"E  c #16BD3E",
"W  c #1ABD3F",
"Q  c #23BC39",
"!  c #16C23F",
"~  c #1EC739",
"^  c #1AC33E",
"/  c #15CA3E",
"(  c #26C93C",
")  c #24CB3D",
"_  c #31CE3A",
"`  c #27D63C",
"'  c #37D139",
"]  c #5EC32D",
"[  c #53C937",
"{  c #5CCD36",
"}  c #5FD333",
"|  c #63CC34",
" . c #69CD34",
".. c #64D234",
"X. c #6CD433",
"o. c #61D936",
"O. c #6DD833",
"+. c #75DA31",
"@. c #1A8540",
"#. c #158E44",
"$. c #1B8D42",
"%. c #169344",
"&. c #1B9444",
"*. c #169B44",
"=. c #1B9A44",
"-. c #208C40",
";. c #239642",
":. c #239B42",
">. c #2C9E41",
",. c #1AA143",
"<. c #0ABA41",
"1. c #13B642",
"2. c #1AB541",
"3. c #15BC40",
"4. c #19BC40",
"5. c #2DA141",
"6. c #578058",
"7. c #7E886E",
"8. c #66946E",
"9. c #778277",
"0. c #7F807B",
"q. c #728F79",
"w. c #7C8D7F",
"e. c #16C140",
"r. c #19C140",
"t. c #18C942",
"y. c #84817E",
"u. c #91AE7E",
"i. c #8A7F80",
"p. c #868381",
"a. c #8A8383",
"s. c #8B8B87",
"d. c #8E8788",
"f. c #8E8988",
"g. c #908687",
"h. c #938B8C",
"j. c #819985",
"k. c #968D90",
"l. c #9B9394",
"z. c #969C92",
"x. c #A09796",
"c. c #A09799",
"v. c #A59E9C",
"b. c #AA9E9E",
"n. c #88AB8C",
"m. c #8AA992",
"M. c #96A293",
"N. c #97AB98",
"B. c #A3A49D",
"V. c #A8A09D",
"C. c #A99FA0",
"Z. c #B19FA3",
"A. c #ABA3A2",
"S. c #ACAAA5",
"D. c #B2A4A5",
"F. c #B2A5A8",
"G. c #B4ABAB",
"H. c #B9ADAE",
"J. c #A4B4A5",
"K. c #BCB2B2",
"L. c #C2BABB",
"P. c #D2C2C7",
/* pixels */
"O % = O $ + O * & * X   X O X M.P.M.# o % + O - = - + O O . O % ",
"* P | K R = - H H F M y.z.4 : a.f.s.N.7 t * # &.&.&.- @ - * = ;.",
"=...( r.o.J %.u.7.7.d.l.H.0 < a.Z s.G.w V w.N.d G J &.; W e.^ ..",
"=.4.*.t.Y u 9.l.V.6 e C s.S.q Z h.a., , Z x.F.2 i 8.D *.e.,.3.~ ",
"=.%.*.T p 2 z i.p.5 2 n h.C.5 e c g 6 i.l.v.6 2 C h.m.*.e.&.=.3.",
"&.&.H q.C.6 , n h.D., 4 g ; E W %.@.s s.x.r N a.s.h.Z.f G *.&.=.",
"*.=.a f.d.d.A.2 0.y.F *.$.%.,.r.=.&.T e.L : c h.H.b.6 a.n.&.%.&.",
"4.E i l 8 l.C.H P | ` 4.=.&.&.&.=.! / / ,.=.H h.k 7 Z y.l.j.&.&.",
"*.t 4 , q r p e.=.| O.{ :.e.e.%.=.r.3.&.$.&.*.5.] j g.s.C 6.*.=.",
"W y 2 y.S.7 U =.&.5.:.;.%.W / ! =.&.*.*.=.&.;...X.j d.Z 2 > G ^ ",
"..y v y.l.A.&.%.%.3.e.%.&.=.3.4.&.4.e.3.4.=.=.:.;.-.g 9 : f.n.E ",
"~ a l z a.p.#.:.;.,.r.*.&.&.*.=.*.e.t.=.%.&.%.%.%.D 6 a.p.l.m.G ",
"q.y.2 : 2 : ;...X.&.%.=.*.=.4.r.=.&.&.&.;.&.%.e.^ &.s s.y.Z f S ",
"b a.Z 9 , L { ' ..:.%.r.4.&.*.3.=.&.#.;.} O.( e./ &.$.j 6 9 v.J.",
", z d.L.S.3.( { :.&.=.4.*.&.=.=.*.&.5..._ X.X.r.E &.@.5 Z Z l.K.",
", , e h.V.r.e.:.&.%.=.&.&.r.4.=.1.,.| +.{ :.;.=.=.&.F z h.h.N : ",
"2 2 2 9 3 =.r.*.&.&.! 4.*.W =.=.r.=.:.;.:.e.3.%.&.=.F l a.Z w < ",
"z Z d.C.f *.2.*.;.&.*.4.=.&.&.%.2.*.%.#.%.4.,.&.=.2.%.1 2 9 V.G.",
"6 p.d.l.V.:.=.=.%.%.=.*.&.&.=.=.=.=.&.=.=.=.&.&.! t.&.l a.Z l.L.",
"1 b A h.B.| +.X.>.&.W e.&.=.3.e.4.=.&.&.4.e.E =.^ 3.H l h.a.Z V.",
"1 e 1 z 5 Q O.+.| =.*.4.=.3./ r.=.&.3.*.=.t./ 3.*.=.T 4 z h q q ",
"2 2 2 9 : %.%.;.:.e.E =.&.^ E =.$.*.r.4.&.&.e.4.&.! ! B 9 < A.H.",
"Z a.F.G.w H *.&.%.W / 3.%.=.=.*.=.&.=.*.&.=.=.&.&.! T y.d.A h.G.",
"m a.f.l.c.&.4.r.=.*.e.r.=.3.^ 3.4.&.&.&.e.3.&.&.=.=.&.g m C 2 8 ",
"h m N 2 , &.=.E =.$.=.=.=.r.r.=.=.;.&.=.4.=.=.*.&.&.$., 6 2 2 v.",
"2 e 2 9 4 I &.&.&.=.2.=.$.*.%.%.#.%.%.=.=.&.^ 4.&.*.&.B h.v.w < ",
"2 , 1 G.S.=.=.%.%./ ! =.&.&.:.=.5.=.=.r.W *.3.*.=.4.%.p.g.k.A.q ",
"2 p.a.c.S.2.! W =.! 4.=.3.=. .+... .*.1.*.;.:.%.$.,.R x d.i.a.A.",
", A i.Z B =.! / 4.=.=.e.e.%.>..._ ..5.%.:.| O.X.>.%.^ : n Z 9 q ",
"2 6 2 w 3 $.=.E r.&.3./ *.&.%.>.{ _ [ >. .) ^ +. .*.T 5 2 8 A.H.",
"Z B a.b.6 F &.*.&.=.r.3.&.&.%.:.X.t.3.5...t.<.;.:.=.&.g A Z h.H.",
"c m f.g.4 $.=.&.&.&.*.&.=.&.&.*.2.*.<.,.2.,.4.*.$.=.T 4 m s.Z 5 "
};
