/* XPM */
static char *floor[] = {
/* columns rows colors chars-per-pixel */
"32 32 6 1 ",
"  c #31443D",
". c #237436",
"X c #44513E",
"o c #16C23F",
"O c #70D732",
"+ c #1B9644",
/* pixels */
" .. .  ...     . .. .  ...     .",
".+O.o..+++.X...+.++.+..+++.X...+",
"+OooO++OOO+.+oO++OOOo++++++.oooO",
"+o+oo++Ooo++++++OOoooo++oo++o+oo",
"+++o+++Oo++o+++++++Ooo+++o++o++o",
"+++++++++++oo+oo++++++++++++++++",
"++OOOO+++Oo++++o++ooo+oo++ooo+++",
"ooooO++o+Ooo+++++ooo++o++Ooo++++",
"++oO++oo+OOO+oo++oo+++++Oooooo++",
"ooo++oo++++++ooo+++++++OOOOo+++o",
"O++++++++oo+++oo+oooo++++++++++o",
"oO++oo++++o++++++oo++++++++++oo+",
"oO++o++OO+++++oo+++++++oo+oo++o+",
"ooO+++OoO++oo++o++++OOooo++o++++",
"o+o++ooO+++o+++++++OoOOoo+++++++",
"o+o+ooo++++++oo+o+OOO+++++++OOo+",
"+++oo+o+++oo+o++o++++oo+++++Ooo+",
"+o++o+o++++o++++o++++o+++o++oo++",
"oo++++++++++++++++++++++oo++++++",
"+++ooOOO++oo++ooo+++ooo+oo+o++++",
"+oo+ooOOO++o+ooo++o++ooo++oo++oo",
"+++oO++++oo++oo+++oo++oo+oo+++Oo",
"+++++++++ooo+++++++++++++oo+++OO",
"oo+oo+oo++oo+oooo+++oo++++++oo++",
"+o+o+++o+++++oo+++++o++++++++o++",
"++++oo++++o+++++++++++oo++++++oo",
"+oo+o++++oo++++++++oo+o++o+++ooo",
"++o++ooo+oo+o+OOOO+o++++++o++oo+",
"++++++ooo++oo++OoO+++OOO++oo++++",
"OOO++++oo+oo++++OoO+OooOO+oo+ooo",
"ooO+++++++oo++++Ooo+Ooo++++++oo+",
"+oO+++++++++++++o+o+o+o+++oo++++"
};
