/* XPM */
static char *wall[] = {
/* columns rows colors chars-per-pixel */
"32 32 20 1 ",
"  c #252023",
". c #59362F",
"X c #195728",
"o c #31443D",
"O c #237436",
"+ c #44513E",
"@ c #6F6727",
"# c #346744",
"$ c #88513E",
"% c #16C23F",
"& c #70D732",
"* c #1B9644",
"= c #7FA544",
"- c #B18533",
"; c #C59438",
": c #D79132",
"> c #EDAC3A",
", c #AEBD54",
"< c #E1DED2",
"1 c #F2EEE4",
/* pixels */
"oOOoOooOOOoooooOoOOoOooOOOoooooO",
"O*&O%OO***O<<OO*O**O*OO***O+OOO*",
"*&%%&**&&<<>><<**&&&%******O%%%&",
"*%*%%<*&%11>>11*&&%%%%*1<<1*%*%%",
"***%<:1&%#1<<##****&%%1<>><1%**%",
"****#1#***###@%%******#1<<1X#***",
"**&&&###*&%X=       %#=@XX@=X#**",
"%%%%&**%*&%  ;;;;;;;  XX#&XX#***",
"**%<<*%%*# ;;-------; **&%%%%%**",
"%%<>>1%***   ;;;;;;   *&&&&%***%",
"&*#11##**% ..         *********%",
"%&*###**** ......     *******%%*",
"%&**%**&&  ......  .  *%%*%%<*%*",
"%%&***&    $.....  .   %%**1><**",
"%*%**   .  $..... ..    %**#1#**",
"%*%*% .$.  $...$.....  .  ###&%*",
"***%%*    .$...$..$... ... *&%%*",
"*%**%*%   .$...$..$.$.  ... %%**",
"%%****** .$....$..$.$..     ****",
"***%%&& .$$...$$....$$. <<*%****",
"*%<<%% .$$.. .$$.....$<<>><<**%%",
"*<::1 .$$.   $$$.<  ..11>>11**&%",
"*#11##*      $$.<>1   #1<<##**&&",
"%%###*%%**% .$..#1#    ###@ %%**",
"*%*%***%1<<1$..  ###%*  X=,X*%**",
"****%%*1<>><1.  ******%%XXX***%%",
"*%%*%*#X1<<1#  ****%%*##X%***%%%",
"**%**#X=@XX@=#&&&&*%<*****%**%%*",
"******#XX*#XX#*&%&*1><&&**%%****",
"&&&****%%*%%****&%&#1#%&&*%%*%%%",
"%%&*******%%****&%###%%******%%*",
"*%&*************%*%*%*%***%%****"
};
