/* XPM */
static char *idle_r1[] = {
/* columns rows colors chars-per-pixel */
"32 32 6 1 ",
"  c None",
". c #04193F",
"X c #780BF7",
"o c #D840FB",
"O c #F489F6",
"+ c #FCFEFE",
/* pixels */
"                                ",
"                                ",
"                                ",
"          ...                   ",
"         .OOO.   ...            ",
"         .OOO.  .XXX.           ",
"         .OOOO. .XXX.           ",
"         .OOOO...XXX.           ",
"         .OOOooooXXXX.          ",
"         .oOOOOOoooXX.          ",
"        .oOOOOOOOoooX.          ",
"        .OOOOO++++++XX.         ",
"       .oOOOO++++++++X.         ",
"       .OOOO++...+++..X.        ",
"       .OOOO+..++.+..+..        ",
"       .OOOO+.....+.....        ",
"       .OOOO+.....+.....        ",
"       .oOOOO+...+++..X.        ",
"        .OOOO+++++++++.         ",
"        .oOOOOo++++++X.         ",
"         .OOOOOoooXXX.          ",
"        .OOOOOOO+++X.           ",
"      ..OOOOOXO++++XX.          ",
"     .OOOOOOXoO+++++XX..        ",
"     .OOOOOXoO++++++XXXX.       ",
"     .OOOOXoOO++++++XXXX.       ",
"      ...XooOO++++++.XXX.       ",
"         .oOOOO++++X....        ",
"         .OOOOOoooXX.           ",
"         .OOOO..XXXX.           ",
"         .OOOO..XXX.            ",
"         .OOO. .XXX.            "
};
