/* XPM */
static char *idle_l1[] = {
/* columns rows colors chars-per-pixel */
"32 32 6 1 ",
"  c None",
". c #04193F",
"X c #780BF7",
"o c #D840FB",
"O c #F489F6",
"+ c #FCFEFE",
/* pixels */
"                                ",
"                                ",
"                                ",
"                   ...          ",
"            ...   .OOO.         ",
"           .XXX.  .OOO.         ",
"           .XXX. .OOOO.         ",
"           .XXX...OOOO.         ",
"          .XXXXooooOOO.         ",
"          .XXoooOOOOOo.         ",
"          .XoooOOOOOOOo.        ",
"         .XX++++++OOOOO.        ",
"         .X++++++++OOOOo.       ",
"        .X..+++...++OOOO.       ",
"        ..+..+.++..+OOOO.       ",
"        .....+.....+OOOO.       ",
"        .....+.....+OOOO.       ",
"        .X..+++...+OOOOo.       ",
"         .+++++++++OOOO.        ",
"         .X++++++oOOOOo.        ",
"          .XXXoooOOOOO.         ",
"           .X+++OOOOOOO.        ",
"          .XX++++OXOOOOO..      ",
"        ..XX+++++OoXOOOOOO.     ",
"       .XXXX++++++OoXOOOOO.     ",
"       .XXXX++++++OOoXOOOO.     ",
"       .XXX.++++++OOooX...      ",
"        ....X++++OOOOo.         ",
"           .XXoooOOOOO.         ",
"           .XXXX..OOOO.         ",
"            .XXX..OOOO.         ",
"            .XXX. .OOO.         "
};
