/* XPM */
static char *idle_l3[] = {
/* columns rows colors chars-per-pixel */
"32 32 6 1 ",
"  c None",
". c #04193F",
"X c #780BF7",
"o c #D840FB",
"O c #F489F6",
"+ c #FCFEFE",
/* pixels */
"                                ",
"                                ",
"                                ",
"                                ",
"              ...   ...         ",
"            ..XXX...OOO.        ",
"           .XXXXX.OOOOO.        ",
"           .XXXooooOOOO.        ",
"          .XXoooOOOOOo.         ",
"          .XoooOOOOOOOo.        ",
"         .XX++++++OOOOO.        ",
"         .X++++++++OOOOo.       ",
"        .X..+++...++OOOO.       ",
"        ..+..+.++..+OOOO.       ",
"        ..+..+.++..+OOOO.       ",
"        ..+..+.++..+OOOO.       ",
"        .X..+++...+OOOOo.       ",
"         .X++++++++OOOO.        ",
"         .X++++++oOOOOo.        ",
"          .XXXoooOOOOO.         ",
"           .X+++OOOOOO.         ",
"           .X++++OXOOO.         ",
"          .X+++++OXOOOO.        ",
"          .X++++++oXOOO.        ",
"         .XX++++++oXOOOO.       ",
"         .XX++++++OoXOOO.       ",
"         .XX++++++OoXOOO.       ",
"          ..X++++OOOoXX.        ",
"           .XXoooOOOoo.         ",
"            .XXX..OOOO.         ",
"            .XXX. .OOO.         ",
"            .XXX. .OOO.         "
};
