/* XPM */
static char *jump_r1[] = {
/* columns rows colors chars-per-pixel */
"32 32 6 1 ",
"  c None",
". c #04193F",
"X c #780BF7",
"o c #D840FB",
"O c #F489F6",
"+ c #FCFEFE",
/* pixels */
"                                ",
"                                ",
"                                ",
"                                ",
"                                ",
"                                ",
"         ...    ...             ",
"        .OOO.  .XXX.            ",
"        .OOOO. .XXX.            ",
"        .OOOOO...XXX.           ",
"         .OOOooooXXX.           ",
"         .oOOOOOoooXX.          ",
"        .oOOOOOOOoooX.          ",
"        .OOOOO++++++XX.         ",
"       .oOOOO++++++++X.         ",
"       .OOOO++...+++..X.        ",
"       .OOOO+..++.+..+..        ",
"       .OOOO+.....+.....        ",
"       .OOOO+.....+.....        ",
"       .oOOOO+...+++..X.        ",
"        .OOOO+++++++++.         ",
"        .oOOOOo++++++X.         ",
"     .....OOOOOoooXXX....       ",
"    .OOOOOOOOOO+++++XXXXX.      ",
"    .OOOOOOOOO+++++++XXXX.      ",
"    .OOOOOOOO++++++++XXXX.      ",
"     ....XXOO++++++++....       ",
"         .oOO+++++++.           ",
"         .OOOO++++++.           ",
"         .OOOOOoooXX.           ",
"        .OOOOO..XXXX.           ",
"        .OOOO. .XXX.            "
};
