/* XPM */
static char *jump_l1[] = {
/* columns rows colors chars-per-pixel */
"32 32 6 1 ",
"  c None",
". c #04193F",
"X c #780BF7",
"o c #D840FB",
"O c #F489F6",
"+ c #FCFEFE",
/* pixels */
"                                ",
"                                ",
"                                ",
"                                ",
"                                ",
"                                ",
"             ...    ...         ",
"            .XXX.  .OOO.        ",
"            .XXX. .OOOO.        ",
"           .XXX...OOOOO.        ",
"           .XXXooooOOO.         ",
"          .XXoooOOOOOo.         ",
"          .XoooOOOOOOOo.        ",
"         .XX++++++OOOOO.        ",
"         .X++++++++OOOOo.       ",
"        .X..+++...++OOOO.       ",
"        ..+..+.++..+OOOO.       ",
"        .....+.....+OOOO.       ",
"        .....+.....+OOOO.       ",
"        .X..+++...+OOOOo.       ",
"         .+++++++++OOOO.        ",
"         .X++++++oOOOOo.        ",
"       ....XXXoooOOOOO.....     ",
"      .XXXXX+++++OOOOOOOOOO.    ",
"      .XXXX+++++++OOOOOOOOO.    ",
"      .XXXX++++++++OOOOOOOO.    ",
"       ....++++++++OOXX....     ",
"           .+++++++OOo.         ",
"           .++++++OOOO.         ",
"           .XXoooOOOOO.         ",
"           .XXXX..OOOOO.        ",
"            .XXX. .OOOO.        "
};
