/* XPM */
static char *jump_r2[] = {
/* columns rows colors chars-per-pixel */
"32 32 6 1 ",
"  c None",
". c #04193F",
"X c #780BF7",
"o c #D840FB",
"O c #F489F6",
"+ c #FCFEFE",
/* pixels */
"                                ",
"                                ",
"        ....   ...              ",
"       .OOOO...XXX..            ",
"       .OOOOOooooXXX.           ",
"       .OOOOOOOOoooXX.          ",
"        .ooOOOOOOoooX.          ",
"        .OOOOO++++++XX.         ",
"       .oOOOO++++++++X.         ",
"       .OOOO++...+++..X.        ",
"       .OOOO+..++.+..+..        ",
"       .OOOO+..++.+..+..        ",
"       .OOOO+..++.+..+..        ",
"       .oOOOO+...+++..X.        ",
"        .OOOO+++++++++.         ",
"        .oOOOOo++++++X.         ",
"         .OOOOOoooXXX.          ",
"         .OOOOOO+++X.           ",
"         .OOOOO++++X.           ",
"        .OOOOXO+++++X.          ",
"        .OOOOX++++++X.          ",
"        .OOOXo++++++XX.         ",
"       .OOOOXo++++++XX.         ",
"       .OOOXoO++++++XX.         ",
"       .OOOXoO++++++XX.         ",
"        .XXoOOO++++X..          ",
"         .ooOOOoooXX.           ",
"         .OOOO..XXXX.           ",
"         .OOOO..XXXX.           ",
"         .OOO. .XXX.            ",
"         .OOO. .XXX.            ",
"          ....  ....            "
};
