/* XPM */
static char *jump_l3[] = {
/* columns rows colors chars-per-pixel */
"32 32 6 1 ",
"  c None",
". c #04193F",
"X c #780BF7",
"o c #D840FB",
"O c #F489F6",
"+ c #FCFEFE",
/* pixels */
"                      ..        ",
"              ...  ...OO.       ",
"             .XXX..OOOOO.       ",
"            .XXXX.OOOOOO.       ",
"           .XXXooooOOOO.        ",
"          .XXoooOOOOOo.         ",
"          .XoooOOOOOOOo.        ",
"         .XX++++++OOOOO.        ",
"         .X++++++++OOOOo.       ",
"        .X..+++...++OOOO.       ",
"        ..+..+.++..+OOOO.       ",
"        ..+..+.++..+OOOO.       ",
"        .....+.....+OOOO.       ",
"        .X..+++...+OOOOo.       ",
"         .+++++++++OOOO.        ",
"         .X++++++oOOOOo.        ",
"          .XXXoooOOOOO.         ",
"           .X+++OOOOOO.         ",
"           .X++++OOOOOO.        ",
"          .X+++++OXOOOOO.       ",
"         .XX++++++oXOOOOO.      ",
"        .XXX++++++OoXOOOO.      ",
"        .XXX++++++OOoXOOO.      ",
"         ...X++++OOOooX..       ",
"           .XXoooOOOOO.         ",
"           .XXXX..OOOO.         ",
"            .XXX..OOOO.         ",
"            .XXX. .OOO.         ",
"            ....  ....          ",
"                                ",
"                                ",
"                                "
};
