/* XPM */
static char *jump_l2[] = {
/* columns rows colors chars-per-pixel */
"32 32 6 1 ",
"  c None",
". c #04193F",
"X c #780BF7",
"o c #D840FB",
"O c #F489F6",
"+ c #FCFEFE",
/* pixels */
"                                ",
"                                ",
"              ...   ....        ",
"            ..XXX...OOOO.       ",
"           .XXXooooOOOOO.       ",
"          .XXoooOOOOOOOO.       ",
"          .XoooOOOOOOoo.        ",
"         .XX++++++OOOOO.        ",
"         .X++++++++OOOOo.       ",
"        .X..+++...++OOOO.       ",
"        ..+..+.++..+OOOO.       ",
"        ..+..+.++..+OOOO.       ",
"        ..+..+.++..+OOOO.       ",
"        .X..+++...+OOOOo.       ",
"         .+++++++++OOOO.        ",
"         .X++++++oOOOOo.        ",
"          .XXXoooOOOOO.         ",
"           .X+++OOOOOO.         ",
"           .X++++OOOOO.         ",
"          .X+++++OXOOOO.        ",
"          .X++++++XOOOO.        ",
"         .XX++++++oXOOO.        ",
"         .XX++++++oXOOOO.       ",
"         .XX++++++OoXOOO.       ",
"         .XX++++++OoXOOO.       ",
"          ..X++++OOOoXX.        ",
"           .XXoooOOOoo.         ",
"           .XXXX..OOOO.         ",
"           .XXXX..OOOO.         ",
"            .XXX. .OOO.         ",
"            .XXX. .OOO.         ",
"            ....  ....          "
};
