/* XPM */
static char *walking_l1[] = {
/* columns rows colors chars-per-pixel */
"32 32 6 1 ",
"  c None",
". c #04193F",
"X c #780BF7",
"o c #D840FB",
"O c #F489F6",
"+ c #FCFEFE",
/* pixels */
"                                ",
"                                ",
"                                ",
"                                ",
"                    ...         ",
"              ... ..OOO.        ",
"            ..XXX.OOOOO.        ",
"           .XXXooooOOOO.        ",
"          .XXoooOOOOoo.         ",
"          .XoooOOOOOOOo.        ",
"         .XX++++++OOOOO.        ",
"         .X++++++++OOOOo.       ",
"        .X..+++...++OOOO.       ",
"        ..+..+.++..+OOOO.       ",
"        ..+..+.++..+OOOO.       ",
"        ..+..+.++..+OOOO.       ",
"        .X..+++...+OOOOo.       ",
"         .+++++++++OOOO.        ",
"         .X++++++oOOOOo.        ",
"          .XXXoooOOOOO.         ",
"           .XX++OOOOOO.         ",
"           .X++++OXOOO.         ",
"           .+++++OXOOO.         ",
"          .X++++++XOOOO.        ",
"          .X++++++oXOOO.        ",
"          .X++++++oXOOO.        ",
"           .X++++OoXOOO.        ",
"           .XXooOOooXX.         ",
"          .XXXX..OOooo.         ",
"          .XXXX..OOOOO.         ",
"          .XXXX. .OOOO.         ",
"           ....  .OOOO.         "
};
