/* XPM */
static char *walking_r1[] = {
/* columns rows colors chars-per-pixel */
"32 32 6 1 ",
"  c None",
". c #04193F",
"X c #780BF7",
"o c #D840FB",
"O c #F489F6",
"+ c #FCFEFE",
/* pixels */
"                                ",
"                                ",
"                                ",
"                                ",
"         ...                    ",
"        .OOO.. ...              ",
"        .OOOOO.XXX..            ",
"        .OOOOooooXXX.           ",
"         .ooOOOOoooXX.          ",
"        .oOOOOOOOoooX.          ",
"        .OOOOO++++++XX.         ",
"       .oOOOO++++++++X.         ",
"       .OOOO++...+++..X.        ",
"       .OOOO+..++.+..+..        ",
"       .OOOO+..++.+..+..        ",
"       .OOOO+..++.+..+..        ",
"       .oOOOO+...+++..X.        ",
"        .OOOO+++++++++.         ",
"        .oOOOOo++++++X.         ",
"         .OOOOOoooXXX.          ",
"         .OOOOOO++XX.           ",
"         .OOOXO++++X.           ",
"         .OOOXO+++++.           ",
"        .OOOOX++++++X.          ",
"        .OOOXo++++++X.          ",
"        .OOOXo++++++X.          ",
"        .OOOXoO++++X.           ",
"         .XXooOOooXX.           ",
"         .oooOO..XXXX.          ",
"         .OOOOO..XXXX.          ",
"         .OOOO. .XXXX.          ",
"         .OOOO.  ....           "
};
