/* XPM */
static char *walking_l4[] = {
/* columns rows colors chars-per-pixel */
"32 32 6 1 ",
"  c None",
". c #04193F",
"X c #780BF7",
"o c #D840FB",
"O c #F489F6",
"+ c #FCFEFE",
/* pixels */
"                                ",
"                                ",
"                                ",
"                                ",
"             ..     ..          ",
"            .XX.   .OO.         ",
"            .XXX. .OOOO.        ",
"           .XXXX..OOOOO.        ",
"           .XXXooooOOO.         ",
"          .XXoooOOOOOo.         ",
"          .XoooOOOOOOOo.        ",
"         .XX++++++OOOOO.        ",
"         .X++++++++OOOOo.       ",
"        .X..+++...++OOOO.       ",
"        ..+..+.++..+OOOO.       ",
"        ..+..+.++..+OOOO.       ",
"        .....+.....+OOOO.       ",
"        .X..+++...+OOOOo.       ",
"         .+++++++++OOOO.        ",
"         .X++++++oOOOOo.        ",
"          .XXXoooOOOOO.         ",
"           .X+++OOOOOO.         ",
"           .X++++OXOOO.         ",
"           .+++++OXOOO.         ",
"          .X+++++OXOOOO.        ",
"          .X+++++OoXOOO.        ",
"          .X+++++OoXOOO.        ",
"           .X+++XOooXX.         ",
"           .XXooXOOoo.          ",
"           .XXXX.OOOO.          ",
"           .XXXX.....           ",
"           .XXX.                "
};
