/* XPM */
static char *walking_l2[] = {
/* columns rows colors chars-per-pixel */
"32 32 6 1 ",
"  c None",
". c #04193F",
"X c #780BF7",
"o c #D840FB",
"O c #F489F6",
"+ c #FCFEFE",
/* pixels */
"                                ",
"                                ",
"                                ",
"                                ",
"                                ",
"            ...    ...          ",
"           .XXX.  .OOO.         ",
"           .XXX.  .OOO.         ",
"           .XXX...OOOO.         ",
"          .XXXXooooOOO.         ",
"          .XXoooOOOOOOo.        ",
"          .XoooOOOOOOOO.        ",
"         .XX++++++OOOOO.        ",
"         .X++++++++OOOOo.       ",
"        .X..+++...++OOOO.       ",
"        ..+..+.++..+OOOO.       ",
"        .....+.....+OOOO.       ",
"        .....+.....+OOOO.       ",
"        .X..+++...+OOOOo.       ",
"         .+++++++++OOOO.        ",
"         .X++++++oOOOOo.        ",
"          .XXXoooOOOOO.         ",
"           .X+++OOOOOO.         ",
"          .X++++OOOOOOO.        ",
"         .XX+++++OOOOOOO.       ",
"        .XXX+++++OOXOOOOO.      ",
"        .XXX+++++OOoXOOOO.      ",
"        .XXX++++OOOoo.OOO.      ",
"         ...X++XOOOO. ...       ",
"            .ooXOOOO.           ",
"             ..OOOO.            ",
"              .OOOO.            "
};
