/* XPM */
static char *walking_r2[] = {
/* columns rows colors chars-per-pixel */
"32 32 6 1 ",
"  c None",
". c #04193F",
"X c #780BF7",
"o c #D840FB",
"O c #F489F6",
"+ c #FCFEFE",
/* pixels */
"                                ",
"                                ",
"                                ",
"                                ",
"                                ",
"          ...    ...            ",
"         .OOO.  .XXX.           ",
"         .OOO.  .XXX.           ",
"         .OOOO...XXX.           ",
"         .OOOooooXXXX.          ",
"        .oOOOOOOoooXX.          ",
"        .OOOOOOOOoooX.          ",
"        .OOOOO++++++XX.         ",
"       .oOOOO++++++++X.         ",
"       .OOOO++...+++..X.        ",
"       .OOOO+..++.+..+..        ",
"       .OOOO+.....+.....        ",
"       .OOOO+.....+.....        ",
"       .oOOOO+...+++..X.        ",
"        .OOOO+++++++++.         ",
"        .oOOOOo++++++X.         ",
"         .OOOOOoooXXX.          ",
"         .OOOOOO+++X.           ",
"        .OOOOOOO++++X.          ",
"       .OOOOOOO+++++XX.         ",
"      .OOOOOXOO+++++XXX.        ",
"      .OOOOXoOO+++++XXX.        ",
"      .OOO.ooOOO++++XXX.        ",
"       ... .OOOOX++X...         ",
"           .OOOOXoo.            ",
"            .OOOO..             ",
"            .OOOO.              "
};
