/* XPM */
static char *cursor[] = {
/* columns rows colors chars-per-pixel */
"32 32 5 1 ",
"  c None",
". c #2C2C2C",
"X c gray56",
"o c gray77",
"O c gray95",
/* pixels */
"                                ",
"                                ",
"                                ",
"                                ",
"                                ",
"                                ",
"                                ",
"                                ",
"               ...........      ",
"           ....XXXXXXXXXXX..    ",
"        ...XoOOOOOOOOOOOOOXX.   ",
"   ... .XXXXXoOOOOOOOOOOOoXX.   ",
"  .XXX.XXoOooooOOOOOOOOOoXXX.   ",
"  .OOo.XoOOOOOoXXXXXXXXXXX..    ",
"  .OOOXoOOOOOOOoX.........      ",
"  .OOOXOOOOOOOOoooOO.           ",
"  .OOOXOOOOOOOOoooOO.           ",
"  .OOOXOOOOOOOOooOOOO.          ",
"  .OOOXOOOoOOOOooOOOO.          ",
"  .OOOXOOooOOOOoooooo.          ",
"  .OOOXOOXoOOOOooOOOO.          ",
"  .OOOXoOXoOOOOoOOOOO.          ",
"  .OOoXXXXXoOOooOOOOO.          ",
"  .XXX..XXXooooooooo.           ",
"   ... .XXXXXoooOOOO.           ",
"        .XXXXooOOOO.            ",
"         ..XXXXoO..             ",
"           ......               ",
"                                ",
"                                ",
"                                ",
"                                "
};
