/* XPM */
static char *dude3[] = {
/* columns rows colors chars-per-pixel */
"96 96 8 1 ",
"  c #000001",
". c #FCFEFE",
"X c #E7333B",
"o c #0FEFFB",
"O c #03396B",
"+ c #0696DB",
"@ c #04193F",
"# c None",
/* pixels */
"################################################################################################",
"################################################################################################",
"################################################################################################",
"################################################################################################",
"################################################################################################",
"################################################################################################",
"################################################################################################",
"################################################################################################",
"################################################################################################",
"################################################################################################",
"################################################################################################",
"################################################################################################",
"################################################################################################",
"################################################################################################",
"################################################################################################",
"################################################################################################",
"################################################################################################",
"################################################################################################",
"#######################################@@@@@@@@@@@@@@@##########################################",
"#######################################@@@@@@@@@@@@@@@##########################################",
"#######################################@@@@@@@@@@@@@@@##########################################",
"#################################@@@@@@ooooooooo++++++@@@@@@####################################",
"#################################@@@@@@ooooooooo++++++@@@@@@####################################",
"#################################@@@@@@ooooooooo++++++@@@@@@####################################",
"##############################@@@oooooooooooooooooo+++OOOOOO@@@#################################",
"##############################@@@oooooooooooooooooo+++OOOOOO@@@#################################",
"##############################@@@oooooooooooooooooo+++OOOOOO@@@#################################",
"###########################@@@ooooooooooooooooooooo@@@@@@OOOOOO@@@##############################",
"###########################@@@ooooooooooooooooooooo@@@@@@OOOOOO@@@##############################",
"###########################@@@ooooooooooooooooooooo@@@@@@OOOOOO@@@##############################",
"########################@@@oooooooooooooooooooooooo@@@@@@OOOOOOOOO@@@###########################",
"########################@@@oooooooooooooooooooooooo@@@@@@OOOOOOOOO@@@###########################",
"########################@@@oooooooooooooooooooooooo@@@@@@OOOOOOOOO@@@###########################",
"########################@@@ooooooooo@@@@@@@@@oooooo++++++OOOOOO@@@@@@###########################",
"########################@@@ooooooooo@@@@@@@@@oooooo++++++OOOOOO@@@@@@###########################",
"########################@@@ooooooooo@@@@@@@@@oooooo++++++OOOOOO@@@@@@###########################",
"#####################@@@ooooooooo@@@@@@......@@@ooo+++++++++@@@@@@...@@@########################",
"#####################@@@ooooooooo@@@@@@......@@@ooo+++++++++@@@@@@...@@@########################",
"#####################@@@ooooooooo@@@@@@......@@@ooo+++++++++@@@@@@...@@@########################",
"#####################@@@ooooooooo@@@@@@@@@@@@@@@ooo+++++++++@@@@@@@@@@@@########################",
"#####################@@@ooooooooo@@@@@@@@@@@@@@@ooo+++++++++@@@@@@@@@@@@########################",
"#####################@@@ooooooooo@@@@@@@@@@@@@@@ooo+++++++++@@@@@@@@@@@@########################",
"#####################@@@ooooooooo@@@@@@@@@@@@@@@ooo+++++++++@@@@@@@@@@@@########################",
"#####################@@@ooooooooo@@@@@@@@@@@@@@@ooo+++++++++@@@@@@@@@@@@########################",
"#####################@@@ooooooooo@@@@@@@@@@@@@@@ooo+++++++++@@@@@@@@@@@@########################",
"#####################@@@oooooooooooo@@@@@@@@@ooo++++++++++++OOO@@@@@@@@@########################",
"#####################@@@oooooooooooo@@@@@@@@@ooo++++++++++++OOO@@@@@@@@@########################",
"#####################@@@oooooooooooo@@@@@@@@@ooo++++++++++++OOO@@@@@@@@@########################",
"#####################@@@oooooooooooooooooooooooo++++++++++++OOOOOOOOO@@@########################",
"#####################@@@oooooooooooooooooooooooo++++++++++++OOOOOOOOO@@@########################",
"#####################@@@oooooooooooooooooooooooo++++++++++++OOOOOOOOO@@@########################",
"########################@@@oooooooooooooooooo++++++++++++OOOOOOOOO@@@###########################",
"########################@@@oooooooooooooooooo++++++++++++OOOOOOOOO@@@###########################",
"########################@@@oooooooooooooooooo++++++++++++OOOOOOOOO@@@###########################",
"########################@@@oooooooooooo++++++++++++@@@@@@OOOOOOOOO@@@###########################",
"########################@@@oooooooooooo++++++++++++@@@@@@OOOOOOOOO@@@###########################",
"########################@@@oooooooooooo++++++++++++@@@@@@OOOOOOOOO@@@###########################",
"###########################@@@+++++++++++++++++++++++++++OOOOOO@@@##############################",
"###########################@@@+++++++++++++++++++++++++++OOOOOO@@@##############################",
"###########################@@@+++++++++++++++++++++++++++OOOOOO@@@##############################",
"###########################@@@      ++++++++++++++++++OOOOOOOOO@@@##############################",
"###########################@@@      ++++++++++++++++++OOOOOOOOO@@@##############################",
"###########################@@@      ++++++++++++++++++OOOOOOOOO@@@##############################",
"########################@@@@@@OOOXXX         OOOOOOOOOOOOOOO   @@@##############################",
"########################@@@@@@OOOXXX         OOOOOOOOOOOOOOO   @@@##############################",
"########################@@@@@@OOOXXX         OOOOOOOOOOOOOOO   @@@##############################",
"##################@@@@@@+++++++++OOOXXXXXXXXX               XXX@@@##############################",
"##################@@@@@@+++++++++OOOXXXXXXXXX               XXX@@@##############################",
"##################@@@@@@+++++++++OOOXXXXXXXXX               XXX@@@##############################",
"###############@@@++++++++++++++++++@@@XXXXXXXXXXXXXXXXXXXXX@@@OOO@@@@@@########################",
"###############@@@++++++++++++++++++@@@XXXXXXXXXXXXXXXXXXXXX@@@OOO@@@@@@########################",
"###############@@@++++++++++++++++++@@@XXXXXXXXXXXXXXXXXXXXX@@@OOO@@@@@@########################",
"###############@@@+++++++++++++++OOOOOO@@@@@@XXXXXXXXXXXXXXX@@@OOOOOOOOO@@@#####################",
"###############@@@+++++++++++++++OOOOOO@@@@@@XXXXXXXXXXXXXXX@@@OOOOOOOOO@@@#####################",
"###############@@@+++++++++++++++OOOOOO@@@@@@XXXXXXXXXXXXXXX@@@OOOOOOOOO@@@#####################",
"###############@@@++++++++++++OOO++++++OOOOOO@@@@@@XXXXXX@@@OOOOOOOOOOOO@@@#####################",
"###############@@@++++++++++++OOO++++++OOOOOO@@@@@@XXXXXX@@@OOOOOOOOOOOO@@@#####################",
"###############@@@++++++++++++OOO++++++OOOOOO@@@@@@XXXXXX@@@OOOOOOOOOOOO@@@#####################",
"##################@@@@@@@@@OOO+++++++++++++++OOOOOO@@@@@@OOO@@@OOOOOOOOO@@@#####################",
"##################@@@@@@@@@OOO+++++++++++++++OOOOOO@@@@@@OOO@@@OOOOOOOOO@@@#####################",
"##################@@@@@@@@@OOO+++++++++++++++OOOOOO@@@@@@OOO@@@OOOOOOOOO@@@#####################",
"###########################@@@++++++++++++++++++OOOOOOOOOOOO@@@@@@@@@@@@########################",
"###########################@@@++++++++++++++++++OOOOOOOOOOOO@@@@@@@@@@@@########################",
"###########################@@@++++++++++++++++++OOOOOOOOOOOO@@@@@@@@@@@@########################",
"###########################@@@+++++++++++++++OOOOOOOOOOOOOOO@@@#################################",
"###########################@@@+++++++++++++++OOOOOOOOOOOOOOO@@@#################################",
"###########################@@@+++++++++++++++OOOOOOOOOOOOOOO@@@#################################",
"###########################@@@++++++++++++@@@@@@OOOOOOOOOOOO@@@#################################",
"###########################@@@++++++++++++@@@@@@OOOOOOOOOOOO@@@#################################",
"###########################@@@++++++++++++@@@@@@OOOOOOOOOOOO@@@#################################",
"###########################@@@++++++++++++@@@@@@OOOOOOOOO@@@####################################",
"###########################@@@++++++++++++@@@@@@OOOOOOOOO@@@####################################",
"###########################@@@++++++++++++@@@@@@OOOOOOOOO@@@####################################",
"###########################@@@+++++++++@@@###@@@OOOOOOOOO@@@####################################",
"###########################@@@+++++++++@@@###@@@OOOOOOOOO@@@####################################",
"###########################@@@+++++++++@@@###@@@OOOOOOOOO@@@####################################"
};
