/* XPM */
static char *dude4[] = {
/* columns rows colors chars-per-pixel */
"96 96 8 1 ",
"  c #000001",
". c #FCFEFE",
"X c #E7333B",
"o c #0FEFFB",
"O c #03396B",
"+ c #0696DB",
"@ c #04193F",
"# c None",
/* pixels */
"################################################################################################",
"################################################################################################",
"################################################################################################",
"################################################################################################",
"################################################################################################",
"################################################################################################",
"################################################################################################",
"################################################################################################",
"################################################################################################",
"################################################################################################",
"################################################################################################",
"################################################################################################",
"################################################################################################",
"################################################################################################",
"################################################################################################",
"#######################################@@@@@@@@@@@@@@@##########################################",
"#######################################@@@@@@@@@@@@@@@##########################################",
"#######################################@@@@@@@@@@@@@@@##########################################",
"#################################@@@@@@ooooooooo++++++@@@@@@####################################",
"#################################@@@@@@ooooooooo++++++@@@@@@####################################",
"#################################@@@@@@ooooooooo++++++@@@@@@####################################",
"##############################@@@oooooooooooooooooo+++OOOOOO@@@#################################",
"##############################@@@oooooooooooooooooo+++OOOOOO@@@#################################",
"##############################@@@oooooooooooooooooo+++OOOOOO@@@#################################",
"###########################@@@ooooooooooooooooooooo@@@@@@OOOOOO@@@##############################",
"###########################@@@ooooooooooooooooooooo@@@@@@OOOOOO@@@##############################",
"###########################@@@ooooooooooooooooooooo@@@@@@OOOOOO@@@##############################",
"########################@@@oooooooooooooooooooooooo@@@@@@OOOOOOOOO@@@###########################",
"########################@@@oooooooooooooooooooooooo@@@@@@OOOOOOOOO@@@###########################",
"########################@@@oooooooooooooooooooooooo@@@@@@OOOOOOOOO@@@###########################",
"########################@@@ooooooooo@@@@@@@@@oooooo++++++OOOOOO@@@@@@###########################",
"########################@@@ooooooooo@@@@@@@@@oooooo++++++OOOOOO@@@@@@###########################",
"########################@@@ooooooooo@@@@@@@@@oooooo++++++OOOOOO@@@@@@###########################",
"#####################@@@ooooooooo@@@@@@......@@@ooo+++++++++@@@@@@...@@@########################",
"#####################@@@ooooooooo@@@@@@......@@@ooo+++++++++@@@@@@...@@@########################",
"#####################@@@ooooooooo@@@@@@......@@@ooo+++++++++@@@@@@...@@@########################",
"#####################@@@ooooooooo@@@@@@......@@@ooo+++++++++@@@@@@...@@@########################",
"#####################@@@ooooooooo@@@@@@......@@@ooo+++++++++@@@@@@...@@@########################",
"#####################@@@ooooooooo@@@@@@......@@@ooo+++++++++@@@@@@...@@@########################",
"#####################@@@ooooooooo@@@@@@......@@@ooo+++++++++@@@@@@...@@@########################",
"#####################@@@ooooooooo@@@@@@......@@@ooo+++++++++@@@@@@...@@@########################",
"#####################@@@ooooooooo@@@@@@......@@@ooo+++++++++@@@@@@...@@@########################",
"#####################@@@oooooooooooo@@@@@@@@@ooo++++++++++++OOO@@@@@@@@@########################",
"#####################@@@oooooooooooo@@@@@@@@@ooo++++++++++++OOO@@@@@@@@@########################",
"#####################@@@oooooooooooo@@@@@@@@@ooo++++++++++++OOO@@@@@@@@@########################",
"#####################@@@oooooooooooooooooooooooo++++++++++++OOOOOOOOO@@@########################",
"#####################@@@oooooooooooooooooooooooo++++++++++++OOOOOOOOO@@@########################",
"#####################@@@oooooooooooooooooooooooo++++++++++++OOOOOOOOO@@@########################",
"########################@@@oooooooooooooooooo++++++++++++OOOOOOOOO@@@###########################",
"########################@@@oooooooooooooooooo++++++++++++OOOOOOOOO@@@###########################",
"########################@@@oooooooooooooooooo++++++++++++OOOOOOOOO@@@###########################",
"########################@@@oooooooooooo++++++++++++@@@@@@OOOOOOOOO@@@###########################",
"########################@@@oooooooooooo++++++++++++@@@@@@OOOOOOOOO@@@###########################",
"########################@@@oooooooooooo++++++++++++@@@@@@OOOOOOOOO@@@###########################",
"###########################@@@+++++++++++++++++++++++++++OOOOOO@@@##############################",
"###########################@@@+++++++++++++++++++++++++++OOOOOO@@@##############################",
"###########################@@@+++++++++++++++++++++++++++OOOOOO@@@##############################",
"###########################@@@      ++++++++++++++++++OOOOOOOOO@@@##############################",
"###########################@@@      ++++++++++++++++++OOOOOOOOO@@@##############################",
"###########################@@@      ++++++++++++++++++OOOOOOOOO@@@##############################",
"###########################@@@OOOXXX         OOOOOOOOOOOOOOO   @@@##############################",
"###########################@@@OOOXXX         OOOOOOOOOOOOOOO   @@@##############################",
"###########################@@@OOOXXX         OOOOOOOOOOOOOOO   @@@##############################",
"###########################@@@+++OOOXXXXXXXXX               XXX@@@##############################",
"###########################@@@+++OOOXXXXXXXXX               XXX@@@##############################",
"###########################@@@+++OOOXXXXXXXXX               XXX@@@##############################",
"########################@@@+++++++++@@@XXXXXXXXXXXXXXXXXXXXXXXX@@@##############################",
"########################@@@+++++++++@@@XXXXXXXXXXXXXXXXXXXXXXXX@@@##############################",
"########################@@@+++++++++@@@XXXXXXXXXXXXXXXXXXXXXXXX@@@##############################",
"########################@@@+++++++++OOO@@@XXXXXXXXXXXXXXXXXX@@@@@@##############################",
"########################@@@+++++++++OOO@@@XXXXXXXXXXXXXXXXXX@@@@@@##############################",
"########################@@@+++++++++OOO@@@XXXXXXXXXXXXXXXXXX@@@@@@##############################",
"#####################@@@++++++++++++OOOOOO@@@XXXXXXXXXXXXXXX@@@OOO@@@###########################",
"#####################@@@++++++++++++OOOOOO@@@XXXXXXXXXXXXXXX@@@OOO@@@###########################",
"#####################@@@++++++++++++OOOOOO@@@XXXXXXXXXXXXXXX@@@OOO@@@###########################",
"#####################@@@+++++++++OOO++++++OOO@@@XXXXXXXXX@@@OOOOOO@@@###########################",
"#####################@@@+++++++++OOO++++++OOO@@@XXXXXXXXX@@@OOOOOO@@@###########################",
"#####################@@@+++++++++OOO++++++OOO@@@XXXXXXXXX@@@OOOOOO@@@###########################",
"#####################@@@+++++++++OOO+++++++++OOO@@@@@@XXX@@@OOOOOO@@@###########################",
"#####################@@@+++++++++OOO+++++++++OOO@@@@@@XXX@@@OOOOOO@@@###########################",
"#####################@@@+++++++++OOO+++++++++OOO@@@@@@XXX@@@OOOOOO@@@###########################",
"########################@@@OOOOOO+++++++++++++++OOOOOO@@@OOO@@@@@@##############################",
"########################@@@OOOOOO+++++++++++++++OOOOOO@@@OOO@@@@@@##############################",
"########################@@@OOOOOO+++++++++++++++OOOOOO@@@OOO@@@@@@##############################",
"###########################@@@+++++++++++++++OOOOOOOOOOOOOOO@@@#################################",
"###########################@@@+++++++++++++++OOOOOOOOOOOOOOO@@@#################################",
"###########################@@@+++++++++++++++OOOOOOOOOOOOOOO@@@#################################",
"###########################@@@++++++++++++@@@@@@OOOOOOOOO@@@####################################",
"###########################@@@++++++++++++@@@@@@OOOOOOOOO@@@####################################",
"###########################@@@++++++++++++@@@@@@OOOOOOOOO@@@####################################",
"###########################@@@+++++++++@@@###@@@OOOOOOOOO@@@####################################",
"###########################@@@+++++++++@@@###@@@OOOOOOOOO@@@####################################",
"###########################@@@+++++++++@@@###@@@OOOOOOOOO@@@####################################",
"###########################@@@+++++++++@@@###@@@OOOOOOOOO@@@####################################",
"###########################@@@+++++++++@@@###@@@OOOOOOOOO@@@####################################",
"###########################@@@+++++++++@@@###@@@OOOOOOOOO@@@####################################"
};
