/* XPM */
static char *pink4[] = {
/* columns rows colors chars-per-pixel */
"96 96 6 1 ",
"  c #D840FB",
". c #780BF7",
"X c #FCFEFE",
"o c #04193F",
"O c #F489F6",
"+ c None",
/* pixels */
"++++++++++++++++++++++++++++++++++++++++++++++++++++++++++++++++++++++++++++++++++++++++++++++++",
"++++++++++++++++++++++++++++++++++++++++++++++++++++++++++++++++++++++++++++++++++++++++++++++++",
"++++++++++++++++++++++++++++++++++++++++++++++++++++++++++++++++++++++++++++++++++++++++++++++++",
"++++++++++++++++++++++++++++++++++++++++++++++++++++++++++++++++++++++++++++++++++++++++++++++++",
"++++++++++++++++++++++++++++++++++++++++++++++++++++++++++++++++++++++++++++++++++++++++++++++++",
"++++++++++++++++++++++++++++++++++++++++++++++++++++++++++++++++++++++++++++++++++++++++++++++++",
"++++++++++++++++++++++++++++++++++++++++++++++++++++++++++++++++++++++++++++++++++++++++++++++++",
"++++++++++++++++++++++++++++++++++++++++++++++++++++++++++++++++++++++++++++++++++++++++++++++++",
"++++++++++++++++++++++++++++++++++++++++++++++++++++++++++++++++++++++++++++++++++++++++++++++++",
"++++++++++++++++++++++++++++++ooooooooo+++++++++++++++++++++++++++++++++++++++++++++++++++++++++",
"++++++++++++++++++++++++++++++ooooooooo+++++++++++++++++++++++++++++++++++++++++++++++++++++++++",
"++++++++++++++++++++++++++++++ooooooooo+++++++++++++++++++++++++++++++++++++++++++++++++++++++++",
"+++++++++++++++++++++++++++oooOOOOOOOOOooo+++++++++ooooooooo++++++++++++++++++++++++++++++++++++",
"+++++++++++++++++++++++++++oooOOOOOOOOOooo+++++++++ooooooooo++++++++++++++++++++++++++++++++++++",
"+++++++++++++++++++++++++++oooOOOOOOOOOooo+++++++++ooooooooo++++++++++++++++++++++++++++++++++++",
"+++++++++++++++++++++++++++oooOOOOOOOOOooo++++++ooo.........ooo+++++++++++++++++++++++++++++++++",
"+++++++++++++++++++++++++++oooOOOOOOOOOooo++++++ooo.........ooo+++++++++++++++++++++++++++++++++",
"+++++++++++++++++++++++++++oooOOOOOOOOOooo++++++ooo.........ooo+++++++++++++++++++++++++++++++++",
"+++++++++++++++++++++++++++oooOOOOOOOOOOOOooo+++ooo.........ooo+++++++++++++++++++++++++++++++++",
"+++++++++++++++++++++++++++oooOOOOOOOOOOOOooo+++ooo.........ooo+++++++++++++++++++++++++++++++++",
"+++++++++++++++++++++++++++oooOOOOOOOOOOOOooo+++ooo.........ooo+++++++++++++++++++++++++++++++++",
"+++++++++++++++++++++++++++oooOOOOOOOOOOOOooooooooo.........ooo+++++++++++++++++++++++++++++++++",
"+++++++++++++++++++++++++++oooOOOOOOOOOOOOooooooooo.........ooo+++++++++++++++++++++++++++++++++",
"+++++++++++++++++++++++++++oooOOOOOOOOOOOOooooooooo.........ooo+++++++++++++++++++++++++++++++++",
"+++++++++++++++++++++++++++oooOOOOOOOOO            ............ooo++++++++++++++++++++++++++++++",
"+++++++++++++++++++++++++++oooOOOOOOOOO            ............ooo++++++++++++++++++++++++++++++",
"+++++++++++++++++++++++++++oooOOOOOOOOO            ............ooo++++++++++++++++++++++++++++++",
"+++++++++++++++++++++++++++ooo   OOOOOOOOOOOOOOO         ......ooo++++++++++++++++++++++++++++++",
"+++++++++++++++++++++++++++ooo   OOOOOOOOOOOOOOO         ......ooo++++++++++++++++++++++++++++++",
"+++++++++++++++++++++++++++ooo   OOOOOOOOOOOOOOO         ......ooo++++++++++++++++++++++++++++++",
"++++++++++++++++++++++++ooo   OOOOOOOOOOOOOOOOOOOOO         ...ooo++++++++++++++++++++++++++++++",
"++++++++++++++++++++++++ooo   OOOOOOOOOOOOOOOOOOOOO         ...ooo++++++++++++++++++++++++++++++",
"++++++++++++++++++++++++ooo   OOOOOOOOOOOOOOOOOOOOO         ...ooo++++++++++++++++++++++++++++++",
"++++++++++++++++++++++++oooOOOOOOOOOOOOOOOXXXXXXXXXXXXXXXXXX......ooo+++++++++++++++++++++++++++",
"++++++++++++++++++++++++oooOOOOOOOOOOOOOOOXXXXXXXXXXXXXXXXXX......ooo+++++++++++++++++++++++++++",
"++++++++++++++++++++++++oooOOOOOOOOOOOOOOOXXXXXXXXXXXXXXXXXX......ooo+++++++++++++++++++++++++++",
"+++++++++++++++++++++ooo   OOOOOOOOOOOOXXXXXXXXXXXXXXXXXXXXXXXX...ooo+++++++++++++++++++++++++++",
"+++++++++++++++++++++ooo   OOOOOOOOOOOOXXXXXXXXXXXXXXXXXXXXXXXX...ooo+++++++++++++++++++++++++++",
"+++++++++++++++++++++ooo   OOOOOOOOOOOOXXXXXXXXXXXXXXXXXXXXXXXX...ooo+++++++++++++++++++++++++++",
"+++++++++++++++++++++oooOOOOOOOOOOOOXXXXXXoooooooooXXXXXXXXXoooooo...ooo++++++++++++++++++++++++",
"+++++++++++++++++++++oooOOOOOOOOOOOOXXXXXXoooooooooXXXXXXXXXoooooo...ooo++++++++++++++++++++++++",
"+++++++++++++++++++++oooOOOOOOOOOOOOXXXXXXoooooooooXXXXXXXXXoooooo...ooo++++++++++++++++++++++++",
"+++++++++++++++++++++oooOOOOOOOOOOOOXXXooooooXXXXXXoooXXXooooooXXXoooooo++++++++++++++++++++++++",
"+++++++++++++++++++++oooOOOOOOOOOOOOXXXooooooXXXXXXoooXXXooooooXXXoooooo++++++++++++++++++++++++",
"+++++++++++++++++++++oooOOOOOOOOOOOOXXXooooooXXXXXXoooXXXooooooXXXoooooo++++++++++++++++++++++++",
"+++++++++++++++++++++oooOOOOOOOOOOOOXXXoooooooooooooooXXXooooooooooooooo++++++++++++++++++++++++",
"+++++++++++++++++++++oooOOOOOOOOOOOOXXXoooooooooooooooXXXooooooooooooooo++++++++++++++++++++++++",
"+++++++++++++++++++++oooOOOOOOOOOOOOXXXoooooooooooooooXXXooooooooooooooo++++++++++++++++++++++++",
"+++++++++++++++++++++oooOOOOOOOOOOOOXXXoooooooooooooooXXXooooooooooooooo++++++++++++++++++++++++",
"+++++++++++++++++++++oooOOOOOOOOOOOOXXXoooooooooooooooXXXooooooooooooooo++++++++++++++++++++++++",
"+++++++++++++++++++++oooOOOOOOOOOOOOXXXoooooooooooooooXXXooooooooooooooo++++++++++++++++++++++++",
"+++++++++++++++++++++ooo   OOOOOOOOOOOOXXXoooooooooXXXXXXXXXoooooo...ooo++++++++++++++++++++++++",
"+++++++++++++++++++++ooo   OOOOOOOOOOOOXXXoooooooooXXXXXXXXXoooooo...ooo++++++++++++++++++++++++",
"+++++++++++++++++++++ooo   OOOOOOOOOOOOXXXoooooooooXXXXXXXXXoooooo...ooo++++++++++++++++++++++++",
"++++++++++++++++++++++++oooOOOOOOOOOOOOXXXXXXXXXXXXXXXXXXXXXXXXXXXooo+++++++++++++++++++++++++++",
"++++++++++++++++++++++++oooOOOOOOOOOOOOXXXXXXXXXXXXXXXXXXXXXXXXXXXooo+++++++++++++++++++++++++++",
"++++++++++++++++++++++++oooOOOOOOOOOOOOXXXXXXXXXXXXXXXXXXXXXXXXXXXooo+++++++++++++++++++++++++++",
"++++++++++++++++++++++++ooo   OOOOOOOOOOOO   XXXXXXXXXXXXXXXXXX...ooo+++++++++++++++++++++++++++",
"++++++++++++++++++++++++ooo   OOOOOOOOOOOO   XXXXXXXXXXXXXXXXXX...ooo+++++++++++++++++++++++++++",
"++++++++++++++++++++++++ooo   OOOOOOOOOOOO   XXXXXXXXXXXXXXXXXX...ooo+++++++++++++++++++++++++++",
"+++++++++++++++++++++++++++oooOOOOOOOOOOOOOOO         .........ooo++++++++++++++++++++++++++++++",
"+++++++++++++++++++++++++++oooOOOOOOOOOOOOOOO         .........ooo++++++++++++++++++++++++++++++",
"+++++++++++++++++++++++++++oooOOOOOOOOOOOOOOO         .........ooo++++++++++++++++++++++++++++++",
"++++++++++++++++++++++++oooOOOOOOOOOOOOOOOOOOOOOXXXXXXXXX...ooo+++++++++++++++++++++++++++++++++",
"++++++++++++++++++++++++oooOOOOOOOOOOOOOOOOOOOOOXXXXXXXXX...ooo+++++++++++++++++++++++++++++++++",
"++++++++++++++++++++++++oooOOOOOOOOOOOOOOOOOOOOOXXXXXXXXX...ooo+++++++++++++++++++++++++++++++++",
"++++++++++++++++++ooooooOOOOOOOOOOOOOOO...OOOXXXXXXXXXXXX......ooo++++++++++++++++++++++++++++++",
"++++++++++++++++++ooooooOOOOOOOOOOOOOOO...OOOXXXXXXXXXXXX......ooo++++++++++++++++++++++++++++++",
"++++++++++++++++++ooooooOOOOOOOOOOOOOOO...OOOXXXXXXXXXXXX......ooo++++++++++++++++++++++++++++++",
"+++++++++++++++oooOOOOOOOOOOOOOOOOOO...   OOOXXXXXXXXXXXXXXX......oooooo++++++++++++++++++++++++",
"+++++++++++++++oooOOOOOOOOOOOOOOOOOO...   OOOXXXXXXXXXXXXXXX......oooooo++++++++++++++++++++++++",
"+++++++++++++++oooOOOOOOOOOOOOOOOOOO...   OOOXXXXXXXXXXXXXXX......oooooo++++++++++++++++++++++++",
"+++++++++++++++oooOOOOOOOOOOOOOOO...   OOOXXXXXXXXXXXXXXXXXX............ooo+++++++++++++++++++++",
"+++++++++++++++oooOOOOOOOOOOOOOOO...   OOOXXXXXXXXXXXXXXXXXX............ooo+++++++++++++++++++++",
"+++++++++++++++oooOOOOOOOOOOOOOOO...   OOOXXXXXXXXXXXXXXXXXX............ooo+++++++++++++++++++++",
"+++++++++++++++oooOOOOOOOOOOOO...   OOOOOOXXXXXXXXXXXXXXXXXX............ooo+++++++++++++++++++++",
"+++++++++++++++oooOOOOOOOOOOOO...   OOOOOOXXXXXXXXXXXXXXXXXX............ooo+++++++++++++++++++++",
"+++++++++++++++oooOOOOOOOOOOOO...   OOOOOOXXXXXXXXXXXXXXXXXX............ooo+++++++++++++++++++++",
"++++++++++++++++++ooooooooo...      OOOOOOXXXXXXXXXXXXXXXXXXooo.........ooo+++++++++++++++++++++",
"++++++++++++++++++ooooooooo...      OOOOOOXXXXXXXXXXXXXXXXXXooo.........ooo+++++++++++++++++++++",
"++++++++++++++++++ooooooooo...      OOOOOOXXXXXXXXXXXXXXXXXXooo.........ooo+++++++++++++++++++++",
"+++++++++++++++++++++++++++ooo   OOOOOOOOOOOOXXXXXXXXXXXX...oooooooooooo++++++++++++++++++++++++",
"+++++++++++++++++++++++++++ooo   OOOOOOOOOOOOXXXXXXXXXXXX...oooooooooooo++++++++++++++++++++++++",
"+++++++++++++++++++++++++++ooo   OOOOOOOOOOOOXXXXXXXXXXXX...oooooooooooo++++++++++++++++++++++++",
"+++++++++++++++++++++++++++oooOOOOOOOOOOOOOOO         ......ooo+++++++++++++++++++++++++++++++++",
"+++++++++++++++++++++++++++oooOOOOOOOOOOOOOOO         ......ooo+++++++++++++++++++++++++++++++++",
"+++++++++++++++++++++++++++oooOOOOOOOOOOOOOOO         ......ooo+++++++++++++++++++++++++++++++++",
"+++++++++++++++++++++++++++oooOOOOOOOOOOOOoooooo............ooo+++++++++++++++++++++++++++++++++",
"+++++++++++++++++++++++++++oooOOOOOOOOOOOOoooooo............ooo+++++++++++++++++++++++++++++++++",
"+++++++++++++++++++++++++++oooOOOOOOOOOOOOoooooo............ooo+++++++++++++++++++++++++++++++++",
"+++++++++++++++++++++++++++oooOOOOOOOOOOOOoooooo.........ooo++++++++++++++++++++++++++++++++++++",
"+++++++++++++++++++++++++++oooOOOOOOOOOOOOoooooo.........ooo++++++++++++++++++++++++++++++++++++",
"+++++++++++++++++++++++++++oooOOOOOOOOOOOOoooooo.........ooo++++++++++++++++++++++++++++++++++++",
"+++++++++++++++++++++++++++oooOOOOOOOOOooo+++ooo.........ooo++++++++++++++++++++++++++++++++++++",
"+++++++++++++++++++++++++++oooOOOOOOOOOooo+++ooo.........ooo++++++++++++++++++++++++++++++++++++",
"+++++++++++++++++++++++++++oooOOOOOOOOOooo+++ooo.........ooo++++++++++++++++++++++++++++++++++++"
};
