/* XPM */
static char *pink3[] = {
/* columns rows colors chars-per-pixel */
"96 96 6 1 ",
"  c #D840FB",
". c #780BF7",
"X c #FCFEFE",
"o c #04193F",
"O c #F489F6",
"+ c None",
/* pixels */
"++++++++++++++++++++++++++++++++++++++++++++++++++++++++++++++++++++++++++++++++++++++++++++++++",
"++++++++++++++++++++++++++++++++++++++++++++++++++++++++++++++++++++++++++++++++++++++++++++++++",
"++++++++++++++++++++++++++++++++++++++++++++++++++++++++++++++++++++++++++++++++++++++++++++++++",
"++++++++++++++++++++++++++++++++++++++++++++++++++++++++++++++++++++++++++++++++++++++++++++++++",
"++++++++++++++++++++++++++++++++++++++++++++++++++++++++++++++++++++++++++++++++++++++++++++++++",
"++++++++++++++++++++++++++++++++++++++++++++++++++++++++++++++++++++++++++++++++++++++++++++++++",
"++++++++++++++++++++++++++++++++++++++++++++++++++++++++++++++++++++++++++++++++++++++++++++++++",
"++++++++++++++++++++++++++++++++++++++++++++++++++++++++++++++++++++++++++++++++++++++++++++++++",
"++++++++++++++++++++++++++++++++++++++++++++++++++++++++++++++++++++++++++++++++++++++++++++++++",
"++++++++++++++++++++++++++++++oooooo++++++++++++++++++++++++++++++++++++++++++++++++++++++++++++",
"++++++++++++++++++++++++++++++oooooo++++++++++++++++++++++++++++++++++++++++++++++++++++++++++++",
"++++++++++++++++++++++++++++++oooooo++++++++++++++++++++++++++++++++++++++++++++++++++++++++++++",
"+++++++++++++++++++++++++++oooOOOOOOooo+++++++++oooooo++++++++++++++++++++++++++++++++++++++++++",
"+++++++++++++++++++++++++++oooOOOOOOooo+++++++++oooooo++++++++++++++++++++++++++++++++++++++++++",
"+++++++++++++++++++++++++++oooOOOOOOooo+++++++++oooooo++++++++++++++++++++++++++++++++++++++++++",
"++++++++++++++++++++++++oooOOOOOOOOOOOOooo+++ooo......oooooo++++++++++++++++++++++++++++++++++++",
"++++++++++++++++++++++++oooOOOOOOOOOOOOooo+++ooo......oooooo++++++++++++++++++++++++++++++++++++",
"++++++++++++++++++++++++oooOOOOOOOOOOOOooo+++ooo......oooooo++++++++++++++++++++++++++++++++++++",
"++++++++++++++++++++++++oooOOOOOOOOOOOOOOOooo...............ooo+++++++++++++++++++++++++++++++++",
"++++++++++++++++++++++++oooOOOOOOOOOOOOOOOooo...............ooo+++++++++++++++++++++++++++++++++",
"++++++++++++++++++++++++oooOOOOOOOOOOOOOOOooo...............ooo+++++++++++++++++++++++++++++++++",
"++++++++++++++++++++++++oooOOOOOOOOOOOO            .........ooo+++++++++++++++++++++++++++++++++",
"++++++++++++++++++++++++oooOOOOOOOOOOOO            .........ooo+++++++++++++++++++++++++++++++++",
"++++++++++++++++++++++++oooOOOOOOOOOOOO            .........ooo+++++++++++++++++++++++++++++++++",
"+++++++++++++++++++++++++++ooo   OOOOOOOOOOOOOOO         ......ooo++++++++++++++++++++++++++++++",
"+++++++++++++++++++++++++++ooo   OOOOOOOOOOOOOOO         ......ooo++++++++++++++++++++++++++++++",
"+++++++++++++++++++++++++++ooo   OOOOOOOOOOOOOOO         ......ooo++++++++++++++++++++++++++++++",
"++++++++++++++++++++++++ooo   OOOOOOOOOOOOOOOOOOOOO         ...ooo++++++++++++++++++++++++++++++",
"++++++++++++++++++++++++ooo   OOOOOOOOOOOOOOOOOOOOO         ...ooo++++++++++++++++++++++++++++++",
"++++++++++++++++++++++++ooo   OOOOOOOOOOOOOOOOOOOOO         ...ooo++++++++++++++++++++++++++++++",
"++++++++++++++++++++++++oooOOOOOOOOOOOOOOOXXXXXXXXXXXXXXXXXX......ooo+++++++++++++++++++++++++++",
"++++++++++++++++++++++++oooOOOOOOOOOOOOOOOXXXXXXXXXXXXXXXXXX......ooo+++++++++++++++++++++++++++",
"++++++++++++++++++++++++oooOOOOOOOOOOOOOOOXXXXXXXXXXXXXXXXXX......ooo+++++++++++++++++++++++++++",
"+++++++++++++++++++++ooo   OOOOOOOOOOOOXXXXXXXXXXXXXXXXXXXXXXXX...ooo+++++++++++++++++++++++++++",
"+++++++++++++++++++++ooo   OOOOOOOOOOOOXXXXXXXXXXXXXXXXXXXXXXXX...ooo+++++++++++++++++++++++++++",
"+++++++++++++++++++++ooo   OOOOOOOOOOOOXXXXXXXXXXXXXXXXXXXXXXXX...ooo+++++++++++++++++++++++++++",
"+++++++++++++++++++++oooOOOOOOOOOOOOXXXXXXoooooooooXXXXXXXXXoooooo...ooo++++++++++++++++++++++++",
"+++++++++++++++++++++oooOOOOOOOOOOOOXXXXXXoooooooooXXXXXXXXXoooooo...ooo++++++++++++++++++++++++",
"+++++++++++++++++++++oooOOOOOOOOOOOOXXXXXXoooooooooXXXXXXXXXoooooo...ooo++++++++++++++++++++++++",
"+++++++++++++++++++++oooOOOOOOOOOOOOXXXooooooXXXXXXoooXXXooooooXXXoooooo++++++++++++++++++++++++",
"+++++++++++++++++++++oooOOOOOOOOOOOOXXXooooooXXXXXXoooXXXooooooXXXoooooo++++++++++++++++++++++++",
"+++++++++++++++++++++oooOOOOOOOOOOOOXXXooooooXXXXXXoooXXXooooooXXXoooooo++++++++++++++++++++++++",
"+++++++++++++++++++++oooOOOOOOOOOOOOXXXooooooXXXXXXoooXXXooooooXXXoooooo++++++++++++++++++++++++",
"+++++++++++++++++++++oooOOOOOOOOOOOOXXXooooooXXXXXXoooXXXooooooXXXoooooo++++++++++++++++++++++++",
"+++++++++++++++++++++oooOOOOOOOOOOOOXXXooooooXXXXXXoooXXXooooooXXXoooooo++++++++++++++++++++++++",
"+++++++++++++++++++++oooOOOOOOOOOOOOXXXoooooooooooooooXXXooooooooooooooo++++++++++++++++++++++++",
"+++++++++++++++++++++oooOOOOOOOOOOOOXXXoooooooooooooooXXXooooooooooooooo++++++++++++++++++++++++",
"+++++++++++++++++++++oooOOOOOOOOOOOOXXXoooooooooooooooXXXooooooooooooooo++++++++++++++++++++++++",
"+++++++++++++++++++++ooo   OOOOOOOOOOOOXXXoooooooooXXXXXXXXXoooooo...ooo++++++++++++++++++++++++",
"+++++++++++++++++++++ooo   OOOOOOOOOOOOXXXoooooooooXXXXXXXXXoooooo...ooo++++++++++++++++++++++++",
"+++++++++++++++++++++ooo   OOOOOOOOOOOOXXXoooooooooXXXXXXXXXoooooo...ooo++++++++++++++++++++++++",
"++++++++++++++++++++++++oooOOOOOOOOOOOOXXXXXXXXXXXXXXXXXXXXXXXXXXXooo+++++++++++++++++++++++++++",
"++++++++++++++++++++++++oooOOOOOOOOOOOOXXXXXXXXXXXXXXXXXXXXXXXXXXXooo+++++++++++++++++++++++++++",
"++++++++++++++++++++++++oooOOOOOOOOOOOOXXXXXXXXXXXXXXXXXXXXXXXXXXXooo+++++++++++++++++++++++++++",
"++++++++++++++++++++++++ooo   OOOOOOOOOOOO   XXXXXXXXXXXXXXXXXX...ooo+++++++++++++++++++++++++++",
"++++++++++++++++++++++++ooo   OOOOOOOOOOOO   XXXXXXXXXXXXXXXXXX...ooo+++++++++++++++++++++++++++",
"++++++++++++++++++++++++ooo   OOOOOOOOOOOO   XXXXXXXXXXXXXXXXXX...ooo+++++++++++++++++++++++++++",
"+++++++++++++++++++++++++++oooOOOOOOOOOOOOOOO         .........ooo++++++++++++++++++++++++++++++",
"+++++++++++++++++++++++++++oooOOOOOOOOOOOOOOO         .........ooo++++++++++++++++++++++++++++++",
"+++++++++++++++++++++++++++oooOOOOOOOOOOOOOOO         .........ooo++++++++++++++++++++++++++++++",
"+++++++++++++++++++++++++++oooOOOOOOOOOOOOOOOOOOXXXXXXXXX...ooo+++++++++++++++++++++++++++++++++",
"+++++++++++++++++++++++++++oooOOOOOOOOOOOOOOOOOOXXXXXXXXX...ooo+++++++++++++++++++++++++++++++++",
"+++++++++++++++++++++++++++oooOOOOOOOOOOOOOOOOOOXXXXXXXXX...ooo+++++++++++++++++++++++++++++++++",
"++++++++++++++++++++++++oooOOOOOOOOOOOO...OOOXXXXXXXXXXXX......ooo++++++++++++++++++++++++++++++",
"++++++++++++++++++++++++oooOOOOOOOOOOOO...OOOXXXXXXXXXXXX......ooo++++++++++++++++++++++++++++++",
"++++++++++++++++++++++++oooOOOOOOOOOOOO...OOOXXXXXXXXXXXX......ooo++++++++++++++++++++++++++++++",
"+++++++++++++++++++++oooOOOOOOOOOOOO...   OOOXXXXXXXXXXXXXXX......ooo+++++++++++++++++++++++++++",
"+++++++++++++++++++++oooOOOOOOOOOOOO...   OOOXXXXXXXXXXXXXXX......ooo+++++++++++++++++++++++++++",
"+++++++++++++++++++++oooOOOOOOOOOOOO...   OOOXXXXXXXXXXXXXXX......ooo+++++++++++++++++++++++++++",
"++++++++++++++++++oooOOOOOOOOOOOO...   OOOXXXXXXXXXXXXXXXXXX.........ooo++++++++++++++++++++++++",
"++++++++++++++++++oooOOOOOOOOOOOO...   OOOXXXXXXXXXXXXXXXXXX.........ooo++++++++++++++++++++++++",
"++++++++++++++++++oooOOOOOOOOOOOO...   OOOXXXXXXXXXXXXXXXXXX.........ooo++++++++++++++++++++++++",
"++++++++++++++++++oooOOOOOOOOOOOO...   OOOXXXXXXXXXXXXXXXXXX.........ooo++++++++++++++++++++++++",
"++++++++++++++++++oooOOOOOOOOOOOO...   OOOXXXXXXXXXXXXXXXXXX.........ooo++++++++++++++++++++++++",
"++++++++++++++++++oooOOOOOOOOOOOO...   OOOXXXXXXXXXXXXXXXXXX.........ooo++++++++++++++++++++++++",
"++++++++++++++++++oooOOOOOOOOO...   OOOOOOXXXXXXXXXXXXXXXXXXooo......ooo++++++++++++++++++++++++",
"++++++++++++++++++oooOOOOOOOOO...   OOOOOOXXXXXXXXXXXXXXXXXXooo......ooo++++++++++++++++++++++++",
"++++++++++++++++++oooOOOOOOOOO...   OOOOOOXXXXXXXXXXXXXXXXXXooo......ooo++++++++++++++++++++++++",
"+++++++++++++++++++++oooooo...      OOOOOOOOOXXXXXXXXXXXX...ooooooooo+++++++++++++++++++++++++++",
"+++++++++++++++++++++oooooo...      OOOOOOOOOXXXXXXXXXXXX...ooooooooo+++++++++++++++++++++++++++",
"+++++++++++++++++++++oooooo...      OOOOOOOOOXXXXXXXXXXXX...ooooooooo+++++++++++++++++++++++++++",
"+++++++++++++++++++++++++++oooOOOOOOOOOOOOOOO         ......ooo+++++++++++++++++++++++++++++++++",
"+++++++++++++++++++++++++++oooOOOOOOOOOOOOOOO         ......ooo+++++++++++++++++++++++++++++++++",
"+++++++++++++++++++++++++++oooOOOOOOOOOOOOOOO         ......ooo+++++++++++++++++++++++++++++++++",
"+++++++++++++++++++++++++++oooOOOOOOOOOOOOoooooo............ooo+++++++++++++++++++++++++++++++++",
"+++++++++++++++++++++++++++oooOOOOOOOOOOOOoooooo............ooo+++++++++++++++++++++++++++++++++",
"+++++++++++++++++++++++++++oooOOOOOOOOOOOOoooooo............ooo+++++++++++++++++++++++++++++++++",
"+++++++++++++++++++++++++++oooOOOOOOOOOOOOoooooo.........ooo++++++++++++++++++++++++++++++++++++",
"+++++++++++++++++++++++++++oooOOOOOOOOOOOOoooooo.........ooo++++++++++++++++++++++++++++++++++++",
"+++++++++++++++++++++++++++oooOOOOOOOOOOOOoooooo.........ooo++++++++++++++++++++++++++++++++++++",
"+++++++++++++++++++++++++++oooOOOOOOOOOooo+++ooo.........ooo++++++++++++++++++++++++++++++++++++",
"+++++++++++++++++++++++++++oooOOOOOOOOOooo+++ooo.........ooo++++++++++++++++++++++++++++++++++++",
"+++++++++++++++++++++++++++oooOOOOOOOOOooo+++ooo.........ooo++++++++++++++++++++++++++++++++++++",
"+++++++++++++++++++++++++++oooOOOOOOOOOooo+++ooo.........ooo++++++++++++++++++++++++++++++++++++",
"+++++++++++++++++++++++++++oooOOOOOOOOOooo+++ooo.........ooo++++++++++++++++++++++++++++++++++++",
"+++++++++++++++++++++++++++oooOOOOOOOOOooo+++ooo.........ooo++++++++++++++++++++++++++++++++++++"
};
