/* XPM */
static char *pink1[] = {
/* columns rows colors chars-per-pixel */
"96 96 6 1 ",
"  c #D840FB",
". c #780BF7",
"X c #FCFEFE",
"o c #04193F",
"O c #F489F6",
"+ c None",
/* pixels */
"++++++++++++++++++++++++++++++++++++++++++++++++++++++++++++++++++++++++++++++++++++++++++++++++",
"++++++++++++++++++++++++++++++++++++++++++++++++++++++++++++++++++++++++++++++++++++++++++++++++",
"++++++++++++++++++++++++++++++++++++++++++++++++++++++++++++++++++++++++++++++++++++++++++++++++",
"++++++++++++++++++++++++++++++++++++++++++++++++++++++++++++++++++++++++++++++++++++++++++++++++",
"++++++++++++++++++++++++++++++++++++++++++++++++++++++++++++++++++++++++++++++++++++++++++++++++",
"++++++++++++++++++++++++++++++++++++++++++++++++++++++++++++++++++++++++++++++++++++++++++++++++",
"++++++++++++++++++++++++++++++++++++++++++++++++++++++++++++++++++++++++++++++++++++++++++++++++",
"++++++++++++++++++++++++++++++++++++++++++++++++++++++++++++++++++++++++++++++++++++++++++++++++",
"++++++++++++++++++++++++++++++++++++++++++++++++++++++++++++++++++++++++++++++++++++++++++++++++",
"++++++++++++++++++++++++++++++++++++++++++++++++++++++++++++++++++++++++++++++++++++++++++++++++",
"++++++++++++++++++++++++++++++++++++++++++++++++++++++++++++++++++++++++++++++++++++++++++++++++",
"++++++++++++++++++++++++++++++++++++++++++++++++++++++++++++++++++++++++++++++++++++++++++++++++",
"++++++++++++++++++++++++++++++oooooo+++++++++++++++oooooo+++++++++++++++++++++++++++++++++++++++",
"++++++++++++++++++++++++++++++oooooo+++++++++++++++oooooo+++++++++++++++++++++++++++++++++++++++",
"++++++++++++++++++++++++++++++oooooo+++++++++++++++oooooo+++++++++++++++++++++++++++++++++++++++",
"+++++++++++++++++++++++++++oooOOOOOOooo+++++++++ooo......ooo++++++++++++++++++++++++++++++++++++",
"+++++++++++++++++++++++++++oooOOOOOOooo+++++++++ooo......ooo++++++++++++++++++++++++++++++++++++",
"+++++++++++++++++++++++++++oooOOOOOOooo+++++++++ooo......ooo++++++++++++++++++++++++++++++++++++",
"++++++++++++++++++++++++oooOOOOOOOOOOOOooo+++ooo.........ooo++++++++++++++++++++++++++++++++++++",
"++++++++++++++++++++++++oooOOOOOOOOOOOOooo+++ooo.........ooo++++++++++++++++++++++++++++++++++++",
"++++++++++++++++++++++++oooOOOOOOOOOOOOooo+++ooo.........ooo++++++++++++++++++++++++++++++++++++",
"++++++++++++++++++++++++oooOOOOOOOOOOOOOOOoooooo............ooo+++++++++++++++++++++++++++++++++",
"++++++++++++++++++++++++oooOOOOOOOOOOOOOOOoooooo............ooo+++++++++++++++++++++++++++++++++",
"++++++++++++++++++++++++oooOOOOOOOOOOOOOOOoooooo............ooo+++++++++++++++++++++++++++++++++",
"+++++++++++++++++++++++++++oooOOOOOOOOO            .........ooo+++++++++++++++++++++++++++++++++",
"+++++++++++++++++++++++++++oooOOOOOOOOO            .........ooo+++++++++++++++++++++++++++++++++",
"+++++++++++++++++++++++++++oooOOOOOOOOO            .........ooo+++++++++++++++++++++++++++++++++",
"+++++++++++++++++++++++++++ooo   OOOOOOOOOOOOOOO         ......ooo++++++++++++++++++++++++++++++",
"+++++++++++++++++++++++++++ooo   OOOOOOOOOOOOOOO         ......ooo++++++++++++++++++++++++++++++",
"+++++++++++++++++++++++++++ooo   OOOOOOOOOOOOOOO         ......ooo++++++++++++++++++++++++++++++",
"++++++++++++++++++++++++ooo   OOOOOOOOOOOOOOOOOOOOO         ...ooo++++++++++++++++++++++++++++++",
"++++++++++++++++++++++++ooo   OOOOOOOOOOOOOOOOOOOOO         ...ooo++++++++++++++++++++++++++++++",
"++++++++++++++++++++++++ooo   OOOOOOOOOOOOOOOOOOOOO         ...ooo++++++++++++++++++++++++++++++",
"++++++++++++++++++++++++oooOOOOOOOOOOOOOOOXXXXXXXXXXXXXXXXXX......ooo+++++++++++++++++++++++++++",
"++++++++++++++++++++++++oooOOOOOOOOOOOOOOOXXXXXXXXXXXXXXXXXX......ooo+++++++++++++++++++++++++++",
"++++++++++++++++++++++++oooOOOOOOOOOOOOOOOXXXXXXXXXXXXXXXXXX......ooo+++++++++++++++++++++++++++",
"+++++++++++++++++++++ooo   OOOOOOOOOOOOXXXXXXXXXXXXXXXXXXXXXXXX...ooo+++++++++++++++++++++++++++",
"+++++++++++++++++++++ooo   OOOOOOOOOOOOXXXXXXXXXXXXXXXXXXXXXXXX...ooo+++++++++++++++++++++++++++",
"+++++++++++++++++++++ooo   OOOOOOOOOOOOXXXXXXXXXXXXXXXXXXXXXXXX...ooo+++++++++++++++++++++++++++",
"+++++++++++++++++++++oooOOOOOOOOOOOOXXXXXXoooooooooXXXXXXXXXoooooo...ooo++++++++++++++++++++++++",
"+++++++++++++++++++++oooOOOOOOOOOOOOXXXXXXoooooooooXXXXXXXXXoooooo...ooo++++++++++++++++++++++++",
"+++++++++++++++++++++oooOOOOOOOOOOOOXXXXXXoooooooooXXXXXXXXXoooooo...ooo++++++++++++++++++++++++",
"+++++++++++++++++++++oooOOOOOOOOOOOOXXXooooooXXXXXXoooXXXooooooXXXoooooo++++++++++++++++++++++++",
"+++++++++++++++++++++oooOOOOOOOOOOOOXXXooooooXXXXXXoooXXXooooooXXXoooooo++++++++++++++++++++++++",
"+++++++++++++++++++++oooOOOOOOOOOOOOXXXooooooXXXXXXoooXXXooooooXXXoooooo++++++++++++++++++++++++",
"+++++++++++++++++++++oooOOOOOOOOOOOOXXXooooooXXXXXXoooXXXooooooXXXoooooo++++++++++++++++++++++++",
"+++++++++++++++++++++oooOOOOOOOOOOOOXXXooooooXXXXXXoooXXXooooooXXXoooooo++++++++++++++++++++++++",
"+++++++++++++++++++++oooOOOOOOOOOOOOXXXooooooXXXXXXoooXXXooooooXXXoooooo++++++++++++++++++++++++",
"+++++++++++++++++++++oooOOOOOOOOOOOOXXXoooooooooooooooXXXooooooooooooooo++++++++++++++++++++++++",
"+++++++++++++++++++++oooOOOOOOOOOOOOXXXoooooooooooooooXXXooooooooooooooo++++++++++++++++++++++++",
"+++++++++++++++++++++oooOOOOOOOOOOOOXXXoooooooooooooooXXXooooooooooooooo++++++++++++++++++++++++",
"+++++++++++++++++++++ooo   OOOOOOOOOOOOXXXoooooooooXXXXXXXXXoooooo...ooo++++++++++++++++++++++++",
"+++++++++++++++++++++ooo   OOOOOOOOOOOOXXXoooooooooXXXXXXXXXoooooo...ooo++++++++++++++++++++++++",
"+++++++++++++++++++++ooo   OOOOOOOOOOOOXXXoooooooooXXXXXXXXXoooooo...ooo++++++++++++++++++++++++",
"++++++++++++++++++++++++oooOOOOOOOOOOOOXXXXXXXXXXXXXXXXXXXXXXXXXXXooo+++++++++++++++++++++++++++",
"++++++++++++++++++++++++oooOOOOOOOOOOOOXXXXXXXXXXXXXXXXXXXXXXXXXXXooo+++++++++++++++++++++++++++",
"++++++++++++++++++++++++oooOOOOOOOOOOOOXXXXXXXXXXXXXXXXXXXXXXXXXXXooo+++++++++++++++++++++++++++",
"++++++++++++++++++++++++ooo   OOOOOOOOOOOO   XXXXXXXXXXXXXXXXXX...ooo+++++++++++++++++++++++++++",
"++++++++++++++++++++++++ooo   OOOOOOOOOOOO   XXXXXXXXXXXXXXXXXX...ooo+++++++++++++++++++++++++++",
"++++++++++++++++++++++++ooo   OOOOOOOOOOOO   XXXXXXXXXXXXXXXXXX...ooo+++++++++++++++++++++++++++",
"+++++++++++++++++++++++++++oooOOOOOOOOOOOOOOO         .........ooo++++++++++++++++++++++++++++++",
"+++++++++++++++++++++++++++oooOOOOOOOOOOOOOOO         .........ooo++++++++++++++++++++++++++++++",
"+++++++++++++++++++++++++++oooOOOOOOOOOOOOOOO         .........ooo++++++++++++++++++++++++++++++",
"+++++++++++++++++++++++++++oooOOOOOOOOOOOOOOOOOOXXXXXXXXX...ooo+++++++++++++++++++++++++++++++++",
"+++++++++++++++++++++++++++oooOOOOOOOOOOOOOOOOOOXXXXXXXXX...ooo+++++++++++++++++++++++++++++++++",
"+++++++++++++++++++++++++++oooOOOOOOOOOOOOOOOOOOXXXXXXXXX...ooo+++++++++++++++++++++++++++++++++",
"++++++++++++++++++++++++oooOOOOOOOOOOOO...OOOXXXXXXXXXXXX......ooo++++++++++++++++++++++++++++++",
"++++++++++++++++++++++++oooOOOOOOOOOOOO...OOOXXXXXXXXXXXX......ooo++++++++++++++++++++++++++++++",
"++++++++++++++++++++++++oooOOOOOOOOOOOO...OOOXXXXXXXXXXXX......ooo++++++++++++++++++++++++++++++",
"++++++++++++++++++++++++oooOOOOOOOOOOOO...OOOXXXXXXXXXXXXXXX...ooo++++++++++++++++++++++++++++++",
"++++++++++++++++++++++++oooOOOOOOOOOOOO...OOOXXXXXXXXXXXXXXX...ooo++++++++++++++++++++++++++++++",
"++++++++++++++++++++++++oooOOOOOOOOOOOO...OOOXXXXXXXXXXXXXXX...ooo++++++++++++++++++++++++++++++",
"+++++++++++++++++++++oooOOOOOOOOOOOO...   XXXXXXXXXXXXXXXXXX......ooo+++++++++++++++++++++++++++",
"+++++++++++++++++++++oooOOOOOOOOOOOO...   XXXXXXXXXXXXXXXXXX......ooo+++++++++++++++++++++++++++",
"+++++++++++++++++++++oooOOOOOOOOOOOO...   XXXXXXXXXXXXXXXXXX......ooo+++++++++++++++++++++++++++",
"+++++++++++++++++++++oooOOOOOOOOOOOO...   XXXXXXXXXXXXXXXXXX......ooo+++++++++++++++++++++++++++",
"+++++++++++++++++++++oooOOOOOOOOOOOO...   XXXXXXXXXXXXXXXXXX......ooo+++++++++++++++++++++++++++",
"+++++++++++++++++++++oooOOOOOOOOOOOO...   XXXXXXXXXXXXXXXXXX......ooo+++++++++++++++++++++++++++",
"+++++++++++++++++++++oooOOOOOOOOO...   OOOXXXXXXXXXXXXXXXXXX......ooo+++++++++++++++++++++++++++",
"+++++++++++++++++++++oooOOOOOOOOO...   OOOXXXXXXXXXXXXXXXXXX......ooo+++++++++++++++++++++++++++",
"+++++++++++++++++++++oooOOOOOOOOO...   OOOXXXXXXXXXXXXXXXXXX......ooo+++++++++++++++++++++++++++",
"++++++++++++++++++++++++ooo......      OOOOOOXXXXXXXXXXXX...oooooo++++++++++++++++++++++++++++++",
"++++++++++++++++++++++++ooo......      OOOOOOXXXXXXXXXXXX...oooooo++++++++++++++++++++++++++++++",
"++++++++++++++++++++++++ooo......      OOOOOOXXXXXXXXXXXX...oooooo++++++++++++++++++++++++++++++",
"+++++++++++++++++++++++++++ooo      OOOOOOOOO         ......ooo+++++++++++++++++++++++++++++++++",
"+++++++++++++++++++++++++++ooo      OOOOOOOOO         ......ooo+++++++++++++++++++++++++++++++++",
"+++++++++++++++++++++++++++ooo      OOOOOOOOO         ......ooo+++++++++++++++++++++++++++++++++",
"+++++++++++++++++++++++++++oooOOOOOOOOOOOOoooooo............ooo+++++++++++++++++++++++++++++++++",
"+++++++++++++++++++++++++++oooOOOOOOOOOOOOoooooo............ooo+++++++++++++++++++++++++++++++++",
"+++++++++++++++++++++++++++oooOOOOOOOOOOOOoooooo............ooo+++++++++++++++++++++++++++++++++",
"+++++++++++++++++++++++++++oooOOOOOOOOOOOOoooooo.........ooo++++++++++++++++++++++++++++++++++++",
"+++++++++++++++++++++++++++oooOOOOOOOOOOOOoooooo.........ooo++++++++++++++++++++++++++++++++++++",
"+++++++++++++++++++++++++++oooOOOOOOOOOOOOoooooo.........ooo++++++++++++++++++++++++++++++++++++",
"+++++++++++++++++++++++++++oooOOOOOOOOOooo+++ooo.........ooo++++++++++++++++++++++++++++++++++++",
"+++++++++++++++++++++++++++oooOOOOOOOOOooo+++ooo.........ooo++++++++++++++++++++++++++++++++++++",
"+++++++++++++++++++++++++++oooOOOOOOOOOooo+++ooo.........ooo++++++++++++++++++++++++++++++++++++"
};
