/* XPM */
static char *pink2[] = {
/* columns rows colors chars-per-pixel */
"96 96 6 1 ",
"  c #D840FB",
". c #780BF7",
"X c #FCFEFE",
"o c #04193F",
"O c #F489F6",
"+ c None",
/* pixels */
"++++++++++++++++++++++++++++++++++++++++++++++++++++++++++++++++++++++++++++++++++++++++++++++++",
"++++++++++++++++++++++++++++++++++++++++++++++++++++++++++++++++++++++++++++++++++++++++++++++++",
"++++++++++++++++++++++++++++++++++++++++++++++++++++++++++++++++++++++++++++++++++++++++++++++++",
"++++++++++++++++++++++++++++++++++++++++++++++++++++++++++++++++++++++++++++++++++++++++++++++++",
"++++++++++++++++++++++++++++++++++++++++++++++++++++++++++++++++++++++++++++++++++++++++++++++++",
"++++++++++++++++++++++++++++++++++++++++++++++++++++++++++++++++++++++++++++++++++++++++++++++++",
"++++++++++++++++++++++++++++++++++++++++++++++++++++++++++++++++++++++++++++++++++++++++++++++++",
"++++++++++++++++++++++++++++++++++++++++++++++++++++++++++++++++++++++++++++++++++++++++++++++++",
"++++++++++++++++++++++++++++++++++++++++++++++++++++++++++++++++++++++++++++++++++++++++++++++++",
"++++++++++++++++++++++++++++++++++++++++++++++++++++++++++++++++++++++++++++++++++++++++++++++++",
"++++++++++++++++++++++++++++++++++++++++++++++++++++++++++++++++++++++++++++++++++++++++++++++++",
"++++++++++++++++++++++++++++++++++++++++++++++++++++++++++++++++++++++++++++++++++++++++++++++++",
"+++++++++++++++++++++++++++ooooooooo+++++++++ooooooooo++++++++++++++++++++++++++++++++++++++++++",
"+++++++++++++++++++++++++++ooooooooo+++++++++ooooooooo++++++++++++++++++++++++++++++++++++++++++",
"+++++++++++++++++++++++++++ooooooooo+++++++++ooooooooo++++++++++++++++++++++++++++++++++++++++++",
"++++++++++++++++++++++++oooOOOOOOOOOooooooooo.........oooooo++++++++++++++++++++++++++++++++++++",
"++++++++++++++++++++++++oooOOOOOOOOOooooooooo.........oooooo++++++++++++++++++++++++++++++++++++",
"++++++++++++++++++++++++oooOOOOOOOOOooooooooo.........oooooo++++++++++++++++++++++++++++++++++++",
"++++++++++++++++++++++++oooOOOOOOOOOOOOOOOooo...............ooo+++++++++++++++++++++++++++++++++",
"++++++++++++++++++++++++oooOOOOOOOOOOOOOOOooo...............ooo+++++++++++++++++++++++++++++++++",
"++++++++++++++++++++++++oooOOOOOOOOOOOOOOOooo...............ooo+++++++++++++++++++++++++++++++++",
"++++++++++++++++++++++++oooOOOOOOOOOOOO            .........ooo+++++++++++++++++++++++++++++++++",
"++++++++++++++++++++++++oooOOOOOOOOOOOO            .........ooo+++++++++++++++++++++++++++++++++",
"++++++++++++++++++++++++oooOOOOOOOOOOOO            .........ooo+++++++++++++++++++++++++++++++++",
"+++++++++++++++++++++++++++ooo   OOOOOOOOOOOOOOO         ......ooo++++++++++++++++++++++++++++++",
"+++++++++++++++++++++++++++ooo   OOOOOOOOOOOOOOO         ......ooo++++++++++++++++++++++++++++++",
"+++++++++++++++++++++++++++ooo   OOOOOOOOOOOOOOO         ......ooo++++++++++++++++++++++++++++++",
"++++++++++++++++++++++++ooo   OOOOOOOOOOOOOOOOOOOOO         ...ooo++++++++++++++++++++++++++++++",
"++++++++++++++++++++++++ooo   OOOOOOOOOOOOOOOOOOOOO         ...ooo++++++++++++++++++++++++++++++",
"++++++++++++++++++++++++ooo   OOOOOOOOOOOOOOOOOOOOO         ...ooo++++++++++++++++++++++++++++++",
"++++++++++++++++++++++++oooOOOOOOOOOOOOOOOXXXXXXXXXXXXXXXXXX......ooo+++++++++++++++++++++++++++",
"++++++++++++++++++++++++oooOOOOOOOOOOOOOOOXXXXXXXXXXXXXXXXXX......ooo+++++++++++++++++++++++++++",
"++++++++++++++++++++++++oooOOOOOOOOOOOOOOOXXXXXXXXXXXXXXXXXX......ooo+++++++++++++++++++++++++++",
"+++++++++++++++++++++ooo   OOOOOOOOOOOOXXXXXXXXXXXXXXXXXXXXXXXX...ooo+++++++++++++++++++++++++++",
"+++++++++++++++++++++ooo   OOOOOOOOOOOOXXXXXXXXXXXXXXXXXXXXXXXX...ooo+++++++++++++++++++++++++++",
"+++++++++++++++++++++ooo   OOOOOOOOOOOOXXXXXXXXXXXXXXXXXXXXXXXX...ooo+++++++++++++++++++++++++++",
"+++++++++++++++++++++oooOOOOOOOOOOOOXXXXXXoooooooooXXXXXXXXXoooooo...ooo++++++++++++++++++++++++",
"+++++++++++++++++++++oooOOOOOOOOOOOOXXXXXXoooooooooXXXXXXXXXoooooo...ooo++++++++++++++++++++++++",
"+++++++++++++++++++++oooOOOOOOOOOOOOXXXXXXoooooooooXXXXXXXXXoooooo...ooo++++++++++++++++++++++++",
"+++++++++++++++++++++oooOOOOOOOOOOOOXXXooooooXXXXXXoooXXXooooooXXXoooooo++++++++++++++++++++++++",
"+++++++++++++++++++++oooOOOOOOOOOOOOXXXooooooXXXXXXoooXXXooooooXXXoooooo++++++++++++++++++++++++",
"+++++++++++++++++++++oooOOOOOOOOOOOOXXXooooooXXXXXXoooXXXooooooXXXoooooo++++++++++++++++++++++++",
"+++++++++++++++++++++oooOOOOOOOOOOOOXXXooooooXXXXXXoooXXXooooooXXXoooooo++++++++++++++++++++++++",
"+++++++++++++++++++++oooOOOOOOOOOOOOXXXooooooXXXXXXoooXXXooooooXXXoooooo++++++++++++++++++++++++",
"+++++++++++++++++++++oooOOOOOOOOOOOOXXXooooooXXXXXXoooXXXooooooXXXoooooo++++++++++++++++++++++++",
"+++++++++++++++++++++oooOOOOOOOOOOOOXXXooooooXXXXXXoooXXXooooooXXXoooooo++++++++++++++++++++++++",
"+++++++++++++++++++++oooOOOOOOOOOOOOXXXooooooXXXXXXoooXXXooooooXXXoooooo++++++++++++++++++++++++",
"+++++++++++++++++++++oooOOOOOOOOOOOOXXXooooooXXXXXXoooXXXooooooXXXoooooo++++++++++++++++++++++++",
"+++++++++++++++++++++ooo   OOOOOOOOOOOOXXXoooooooooXXXXXXXXXoooooo...ooo++++++++++++++++++++++++",
"+++++++++++++++++++++ooo   OOOOOOOOOOOOXXXoooooooooXXXXXXXXXoooooo...ooo++++++++++++++++++++++++",
"+++++++++++++++++++++ooo   OOOOOOOOOOOOXXXoooooooooXXXXXXXXXoooooo...ooo++++++++++++++++++++++++",
"++++++++++++++++++++++++oooOOOOOOOOOOOOXXXXXXXXXXXXXXXXXXXXXXXX...ooo+++++++++++++++++++++++++++",
"++++++++++++++++++++++++oooOOOOOOOOOOOOXXXXXXXXXXXXXXXXXXXXXXXX...ooo+++++++++++++++++++++++++++",
"++++++++++++++++++++++++oooOOOOOOOOOOOOXXXXXXXXXXXXXXXXXXXXXXXX...ooo+++++++++++++++++++++++++++",
"++++++++++++++++++++++++ooo   OOOOOOOOOOOO   XXXXXXXXXXXXXXXXXX...ooo+++++++++++++++++++++++++++",
"++++++++++++++++++++++++ooo   OOOOOOOOOOOO   XXXXXXXXXXXXXXXXXX...ooo+++++++++++++++++++++++++++",
"++++++++++++++++++++++++ooo   OOOOOOOOOOOO   XXXXXXXXXXXXXXXXXX...ooo+++++++++++++++++++++++++++",
"+++++++++++++++++++++++++++oooOOOOOOOOOOOOOOO         .........ooo++++++++++++++++++++++++++++++",
"+++++++++++++++++++++++++++oooOOOOOOOOOOOOOOO         .........ooo++++++++++++++++++++++++++++++",
"+++++++++++++++++++++++++++oooOOOOOOOOOOOOOOO         .........ooo++++++++++++++++++++++++++++++",
"+++++++++++++++++++++++++++oooOOOOOOOOOOOOOOOOOOXXXXXXXXX...ooo+++++++++++++++++++++++++++++++++",
"+++++++++++++++++++++++++++oooOOOOOOOOOOOOOOOOOOXXXXXXXXX...ooo+++++++++++++++++++++++++++++++++",
"+++++++++++++++++++++++++++oooOOOOOOOOOOOOOOOOOOXXXXXXXXX...ooo+++++++++++++++++++++++++++++++++",
"+++++++++++++++++++++++++++oooOOOOOOOOO...OOOXXXXXXXXXXXX...ooo+++++++++++++++++++++++++++++++++",
"+++++++++++++++++++++++++++oooOOOOOOOOO...OOOXXXXXXXXXXXX...ooo+++++++++++++++++++++++++++++++++",
"+++++++++++++++++++++++++++oooOOOOOOOOO...OOOXXXXXXXXXXXX...ooo+++++++++++++++++++++++++++++++++",
"++++++++++++++++++++++++oooOOOOOOOOOOOO...OOOXXXXXXXXXXXXXXX...ooo++++++++++++++++++++++++++++++",
"++++++++++++++++++++++++oooOOOOOOOOOOOO...OOOXXXXXXXXXXXXXXX...ooo++++++++++++++++++++++++++++++",
"++++++++++++++++++++++++oooOOOOOOOOOOOO...OOOXXXXXXXXXXXXXXX...ooo++++++++++++++++++++++++++++++",
"++++++++++++++++++++++++oooOOOOOOOOO...   XXXXXXXXXXXXXXXXXX...ooo++++++++++++++++++++++++++++++",
"++++++++++++++++++++++++oooOOOOOOOOO...   XXXXXXXXXXXXXXXXXX...ooo++++++++++++++++++++++++++++++",
"++++++++++++++++++++++++oooOOOOOOOOO...   XXXXXXXXXXXXXXXXXX...ooo++++++++++++++++++++++++++++++",
"+++++++++++++++++++++oooOOOOOOOOOOOO...   XXXXXXXXXXXXXXXXXX......ooo+++++++++++++++++++++++++++",
"+++++++++++++++++++++oooOOOOOOOOOOOO...   XXXXXXXXXXXXXXXXXX......ooo+++++++++++++++++++++++++++",
"+++++++++++++++++++++oooOOOOOOOOOOOO...   XXXXXXXXXXXXXXXXXX......ooo+++++++++++++++++++++++++++",
"+++++++++++++++++++++oooOOOOOOOOO...   OOOXXXXXXXXXXXXXXXXXX......ooo+++++++++++++++++++++++++++",
"+++++++++++++++++++++oooOOOOOOOOO...   OOOXXXXXXXXXXXXXXXXXX......ooo+++++++++++++++++++++++++++",
"+++++++++++++++++++++oooOOOOOOOOO...   OOOXXXXXXXXXXXXXXXXXX......ooo+++++++++++++++++++++++++++",
"+++++++++++++++++++++oooOOOOOOOOO...   OOOXXXXXXXXXXXXXXXXXX......ooo+++++++++++++++++++++++++++",
"+++++++++++++++++++++oooOOOOOOOOO...   OOOXXXXXXXXXXXXXXXXXX......ooo+++++++++++++++++++++++++++",
"+++++++++++++++++++++oooOOOOOOOOO...   OOOXXXXXXXXXXXXXXXXXX......ooo+++++++++++++++++++++++++++",
"++++++++++++++++++++++++ooo......   OOOOOOOOOXXXXXXXXXXXX...oooooo++++++++++++++++++++++++++++++",
"++++++++++++++++++++++++ooo......   OOOOOOOOOXXXXXXXXXXXX...oooooo++++++++++++++++++++++++++++++",
"++++++++++++++++++++++++ooo......   OOOOOOOOOXXXXXXXXXXXX...oooooo++++++++++++++++++++++++++++++",
"+++++++++++++++++++++++++++ooo      OOOOOOOOO         ......ooo+++++++++++++++++++++++++++++++++",
"+++++++++++++++++++++++++++ooo      OOOOOOOOO         ......ooo+++++++++++++++++++++++++++++++++",
"+++++++++++++++++++++++++++ooo      OOOOOOOOO         ......ooo+++++++++++++++++++++++++++++++++",
"+++++++++++++++++++++++++++oooOOOOOOOOOOOOoooooo.........ooo++++++++++++++++++++++++++++++++++++",
"+++++++++++++++++++++++++++oooOOOOOOOOOOOOoooooo.........ooo++++++++++++++++++++++++++++++++++++",
"+++++++++++++++++++++++++++oooOOOOOOOOOOOOoooooo.........ooo++++++++++++++++++++++++++++++++++++",
"+++++++++++++++++++++++++++oooOOOOOOOOOooo+++ooo.........ooo++++++++++++++++++++++++++++++++++++",
"+++++++++++++++++++++++++++oooOOOOOOOOOooo+++ooo.........ooo++++++++++++++++++++++++++++++++++++",
"+++++++++++++++++++++++++++oooOOOOOOOOOooo+++ooo.........ooo++++++++++++++++++++++++++++++++++++",
"+++++++++++++++++++++++++++oooOOOOOOOOOooo+++ooo.........ooo++++++++++++++++++++++++++++++++++++",
"+++++++++++++++++++++++++++oooOOOOOOOOOooo+++ooo.........ooo++++++++++++++++++++++++++++++++++++",
"+++++++++++++++++++++++++++oooOOOOOOOOOooo+++ooo.........ooo++++++++++++++++++++++++++++++++++++"
};
